<?xml version="1.0" encoding="UTF-8"?>
<svg width="121px" height="42px" viewBox="0 0 121 42" version="1.1" xmlns="http://www.w3.org/2000/svg" xmlns:xlink="http://www.w3.org/1999/xlink">
    <title>Healthy Kids Logo</title>
    <g id="Page-1" stroke="none" stroke-width="1" fill="none" fill-rule="evenodd">
        <g id="Mobile" transform="translate(-100.000000, -12.000000)" fill-rule="nonzero">
            <g id="Healthy-Kids-Logo" transform="translate(100.000000, 12.000000)">
                <path d="M17.1508086,23.6787092 C17.1508086,24.4356366 17.7717187,25.680463 20.245581,25.680463 C22.1474238,25.680463 23.3061301,24.5496317 24.1959383,24.5496317 C24.6315739,24.5481644 25.049102,24.71206 25.3524995,25.0036261 C25.655897,25.2951921 25.8190504,25.6893333 25.8044378,26.0954051 C25.8044378,27.8463697 22.6656638,29 19.7468973,29 C15.5960888,29 13,26.1182041 13,22.5022799 C13,19.041389 15.7965401,16 19.7468973,16 C23.555472,16 26,18.9729919 26,22.1101368 C26,23.3777622 25.3595337,23.6787092 24.1226025,23.6787092 L17.1508086,23.6787092 Z M22.1474238,21.2118555 C22.0016352,20.0131651 20.9414595,19.0921112 19.6491162,19.041389 C18.3567729,19.0921112 17.2965972,20.0131651 17.1508086,21.2118555 L22.1474238,21.2118555 Z" id="Shape" fill="#ED1D24"></path>
                <path d="M0.0024594265,12.001784 C-0.0334911966,11.2988613 0.326877967,10.6336411 0.939771834,10.2715605 C1.5526657,9.90947984 2.31831485,9.90947984 2.93120871,10.2715605 C3.54410258,10.6336411 3.90447174,11.2988613 3.86852112,12.001784 L3.86852112,16.3926312 L3.92242059,16.3926312 C4.88963216,15.756988 6.02787874,15.4208979 7.1906882,15.4276098 C9.86606169,15.4276098 11.9975406,16.7931151 11.9975406,19.9149592 L11.9975406,26.998216 C12.0334912,27.7011387 11.673122,28.3663589 11.0602282,28.7284395 C10.4473343,29.0905202 9.68168515,29.0905202 9.06879129,28.7284395 C8.45589742,28.3663589 8.09552826,27.7011387 8.13147888,26.998216 L8.13147888,20.9764827 C8.13147888,19.6544034 7.3425867,18.6797318 6.00489995,18.6797318 C4.66721321,18.6797318 3.87342107,19.6447532 3.87342107,20.9764827 L3.87342107,26.998216 C3.89623557,27.5168733 3.70211235,28.0220619 3.33633803,28.3959271 C2.97056372,28.7697924 2.465127,28.9796381 1.93794025,28.9765099 C1.41031437,28.9810352 0.904032074,28.7716259 0.537945845,28.3974418 C0.171859616,28.0232578 -0.0217892247,27.5172534 0.0024594265,26.998216 L0.0024594265,12.001784 Z" id="Path" fill="#ED1D24"></path>
                <path d="M40.0025414,12.0058591 C39.9653925,11.3015055 40.3377728,10.634931 40.9710943,10.2721133 C41.6044159,9.90929557 42.3955841,9.90929557 43.0289057,10.2721133 C43.6622272,10.634931 44.0346075,11.3015055 43.9974586,12.0058591 L43.9974586,26.9941409 C44.0346075,27.6984945 43.6622272,28.365069 43.0289057,28.7278867 C42.3955841,29.0907044 41.6044159,29.0907044 40.9710943,28.7278867 C40.3377728,28.365069 39.9653925,27.6984945 40.0025414,26.9941409 L40.0025414,12.0058591 Z" id="Path" fill="#ED1D24"></path>
                <path d="M47.3598131,18.7141119 L46.9392523,18.7141119 C45.7570093,18.7141119 45,18.1932866 45,17.0214298 C45,15.8495729 45.7570093,15.3380481 46.9392523,15.3380481 L47.3598131,15.3380481 L47.3598131,12.9292313 C47.3255283,12.2517854 47.6691987,11.6106754 48.2536923,11.261718 C48.8381858,10.9127607 49.5683563,10.9127607 50.1528498,11.261718 C50.7373434,11.6106754 51.0810137,12.2517854 51.046729,12.9292313 L51.046729,15.3380481 L52.0607477,15.3380481 C53.2429907,15.3380481 54,15.8542231 54,17.0307302 C54,18.2072373 53.2429907,18.7234123 52.0607477,18.7234123 L51.046729,18.7234123 L51.046729,26.0707687 C51.0810137,26.7482146 50.7373434,27.3893246 50.1528498,27.738282 C49.5683563,28.0872393 48.8381858,28.0872393 48.2536923,27.738282 C47.6691987,27.3893246 47.3255283,26.7482146 47.3598131,26.0707687 L47.3598131,18.7141119 Z" id="Path" fill="#ED1D24"></path>
                <path d="M55.0024609,12.001784 C54.9664883,11.2988613 55.3270786,10.6336411 55.9403485,10.2715605 C56.5536185,9.90947984 57.3197375,9.90947984 57.9330075,10.2715605 C58.5462774,10.6336411 58.9068678,11.2988613 58.8708951,12.001784 L58.8708951,16.3926312 L58.9199247,16.3926312 C59.8877298,15.756988 61.0266748,15.4208979 62.1901979,15.4276098 C64.8672131,15.4276098 67,16.7931151 67,19.9149592 L67,26.998216 C67,28.0481602 66.1351191,28.8993081 65.0682344,28.8993081 C64.0013497,28.8993081 63.1364688,28.0481602 63.1364688,26.998216 L63.1364688,20.9764827 C63.1364688,19.6544034 62.3421896,18.6797318 61.0036819,18.6797318 C59.6651743,18.6797318 58.8708951,19.6447532 58.8708951,20.9764827 L58.8708951,26.998216 C58.9068678,27.7011387 58.5462774,28.3663589 57.9330075,28.7284395 C57.3197375,29.0905202 56.5536185,29.0905202 55.9403485,28.7284395 C55.3270786,28.3663589 54.9664883,27.7011387 55.0024609,26.998216 L55.0024609,12.001784 Z" id="Path" fill="#ED1D24"></path>
                <path d="M70.9816007,27.530986 L67.792533,20.0340169 C67.4196154,19.3079535 67.1527889,18.5333754 67,17.7333845 C66.9982627,17.2619676 67.1920743,16.8103993 67.5363464,16.4837601 C67.8806186,16.1571209 68.3453279,15.9838964 68.8223361,16.004396 C69.7031066,15.9985909 70.4796193,16.5736084 70.7205907,17.4100777 L72.9273117,23.0328045 L75.0391199,18.0192065 C75.5136835,16.8806043 76.0451948,16.004396 77.0749979,16.004396 C77.5908341,15.9685139 78.0973563,16.1535823 78.4652757,16.5123629 C78.8331951,16.8711435 79.0269121,17.3689209 78.9969807,17.8786383 C78.9440971,18.4408387 78.7830278,18.9879082 78.522417,19.4904867 L73.0079875,32.2400196 C72.5761346,33.2146256 72.2676682,33.9971218 70.9673638,33.9971218 C70.4985032,34.02389 70.0384834,33.8630774 69.6911368,33.5509816 C69.3437903,33.2388858 69.1383949,32.8018134 69.1213112,32.3384174 C69.1213112,31.6964894 69.3111367,31.2747849 69.7429896,30.3001789 L70.9816007,27.530986 Z" id="Path" fill="#ED1D24"></path>
                <path d="M94.9957291,6 C95.805412,5.99828728 96.5362441,6.48493397 96.8468902,7.23265612 C97.1575362,7.98037827 96.9866972,8.8416301 96.4141637,9.41416366 C95.8416301,9.98669723 94.9803783,10.1575362 94.2326561,9.84689017 C93.484934,9.53624414 92.9982873,8.80541197 93,7.99572906 C93,6.89352084 93.8935208,6 94.9957291,6" id="Path" fill="#00B8DB"></path>
                <path d="M93.0025414,16.9535685 C92.9653925,16.2675766 93.3377728,15.6183791 93.9710943,15.2650196 C94.6044159,14.9116601 95.3955841,14.9116601 96.0289057,15.2650196 C96.6622272,15.6183791 97.0346075,16.2675766 96.9974586,16.9535685 L96.9974586,26.0464315 C97.0346075,26.7324234 96.6622272,27.3816209 96.0289057,27.7349804 C95.3955841,28.0883399 94.6044159,28.0883399 93.9710943,27.7349804 C93.3377728,27.3816209 92.9653925,26.7324234 93.0025414,26.0464315 L93.0025414,16.9535685 Z" id="Path" fill="#00B8DB"></path>
                <path d="M109.973207,26.8093224 C109.99615,27.3264078 109.799948,27.8297906 109.431065,28.2002606 C109.062182,28.5707307 108.553425,28.7753395 108.025278,28.7656323 C107.234845,28.7483536 106.529677,28.2746271 106.228313,27.5584459 C105.441957,28.5446895 104.205325,29.0816149 102.931444,28.9898922 C99.5810058,28.9898922 97,25.974312 97,22.1857509 C97,18.3971898 99.5810058,15.3863811 102.931444,15.3863811 C104.108302,15.3151272 105.266462,15.7008131 106.155266,16.4599658 L106.155266,11.979539 C106.119536,11.2844277 106.47769,10.6265997 107.086815,10.2685427 C107.69594,9.91048575 108.456881,9.91048575 109.066007,10.2685427 C109.675132,10.6265997 110.033285,11.2844277 109.997556,11.979539 L109.973207,26.8093224 Z M100.861769,22.2000654 C100.861769,23.9416583 101.796775,25.3874191 103.496343,25.3874191 C105.195911,25.3874191 106.130917,23.9559728 106.130917,22.2000654 C106.130917,20.4441579 105.195911,19.0174832 103.496343,19.0174832 C101.796775,19.0174832 100.861769,20.4489294 100.861769,22.2000654" id="Shape" fill="#00B8DB"></path>
                <path d="M112.570528,23.7945205 C113.772661,23.7945205 114.606398,24.8356164 116.244789,24.8356164 C117.030053,24.8356164 117.325739,24.4885845 117.325739,24.1187215 C117.325739,23.3789954 116.492002,23.3105023 114.359186,22.4794521 C112.420262,21.716895 111.344159,21.0273973 111.344159,19.0821918 C111.344159,17.0319635 113.205526,15 116.269026,15 C117.815317,15 120.684925,15.6894977 120.684925,17.5616438 C120.702661,17.9674108 120.540331,18.361827 120.236872,18.6502871 C119.933412,18.9387472 119.516202,19.0952266 119.085313,19.0821918 C118.329132,19.0821918 117.204556,18.1689498 116.02666,18.1689498 C115.507998,18.1689498 115.01842,18.4018265 115.01842,18.9360731 C115.01842,20.3424658 121,20.0182648 121,23.9589041 C121,26.5022831 118.721764,28 116.09937,28 C113.675715,28 111,27.086758 111,25.5068493 C111,24.4931507 111.712555,23.7762557 112.570528,23.7762557" id="Path" fill="#00B8DB"></path>
                <path d="M95.9614574,12.21231 L95.9614574,12.21231 C95.9031274,11.9969986 95.7682372,11.8088915 95.5808491,11.6815445 C95.3715725,11.53979 95.1359013,11.4392688 94.8870822,11.385631 C94.7393284,11.3448036 94.5874945,11.3196075 94.4342066,11.3104784 L94.4197531,11.3104784 C94.3492613,11.3037263 94.2782605,11.3037263 94.2077687,11.3104784 C93.5043787,11.3944688 92.7965618,11.4383824 92.0879253,11.4419955 C90.4993393,11.4744807 88.924089,11.1531924 87.4820837,10.5025875 C87.9364222,10.236981 88.3195229,9.86992444 88.5998193,9.43166242 C89.0235062,8.80406043 89.2679691,8.07770886 89.3080397,7.32738856 C89.3051994,7.23309459 89.2971581,7.13901786 89.2839506,7.04556617 C89.2095959,6.43556196 88.9098724,5.87285035 88.4408311,5.46266373 C87.9077467,5.06738351 87.2504171,4.86483507 86.5811503,4.88962487 L86.5570611,4.88962487 C85.7708038,4.90434259 85.0330481,5.26311 84.5480277,5.86660916 C84.3288188,6.1201649 84.145696,6.40139187 84.0036134,6.70268226 C83.9457995,6.55707402 83.8879855,6.40676875 83.8398073,6.23297827 C83.6601516,5.69142339 83.5706901,5.12529539 83.5748269,4.55613504 C83.6258575,3.58261151 83.805603,2.61958572 84.1096055,1.69094072 C84.1287533,1.59499061 84.1384331,1.49747342 84.1385125,1.39972425 L84.1385125,1.39972425 L84.1385125,1.40911833 C84.1220097,0.999375486 83.9232495,0.616965871 83.5940982,0.361678436 C83.3027234,0.126912657 82.9362658,-0.0010399519 82.5582656,0 L82.5582656,0 C81.7620283,0.0326674423 81.0794942,0.565005504 80.8720265,1.31517753 C80.525143,2.36261742 80.0096357,5.54251341 80,10.0704598 C80,11.3621458 80.0433604,12.7524696 80.1541704,14.2226431 C80.4056036,17.2759659 80.8205022,20.3143955 81.3971695,23.3255063 C81.6428787,24.6688598 81.8789521,25.8525138 82.0957543,26.7590425 C82.2246376,27.3740776 82.3854384,27.982343 82.5775369,28.581494 C82.7011694,28.9275696 82.9076144,29.2399396 83.1797651,29.4927197 C83.5144983,29.8159843 83.9660634,29.9981543 84.4372177,30 L84.4372177,30 C84.6114007,29.9976398 84.7845907,29.9739696 84.9527251,29.9295444 C85.3392567,29.8233219 85.6571473,29.5547238 85.8199338,29.1968062 C85.9310222,28.9512901 85.9868773,28.6854227 85.9837398,28.4170976 C85.9838481,28.215585 85.9563028,28.014964 85.9018368,27.8205735 C85.8199338,27.529357 85.4585968,26.5288875 85.0876242,25.2325045 C84.7093437,24.0304948 84.4733421,22.7902424 84.3842216,21.5359342 L84.3842216,21.4748726 C84.3822103,21.2903887 84.3999721,21.1062046 84.4372177,20.925319 C84.8789996,21.3077579 85.2633772,21.7489087 85.5790425,22.2357931 C86.0222824,22.8558024 86.4847937,23.6026317 86.9039446,24.3259758 C87.3230955,25.04932 87.7277928,25.7820582 88.0505872,26.3691882 C88.2830642,26.8196254 88.5437182,27.2557066 88.831075,27.6749653 C89.2231234,28.2361099 89.8450802,28.6043818 90.5365854,28.6848288 L90.6666667,28.6848288 C91.0764883,28.6877905 91.473546,28.5459639 91.7844023,28.2855804 C92.1311234,28.0083336 92.3397561,27.5998201 92.3577236,27.1629879 L92.3577236,27.1160175 C92.337449,26.7013301 92.1971367,26.3007175 91.9530262,25.9605457 C91.4182475,25.1620489 90.2186089,23.7106636 89.1249624,21.8929092 C88.0313159,20.0751548 87.1255646,17.9990631 87.1207468,16.1249442 L87.1207468,16.1249442 L87.1207468,16.0873679 C87.1170755,15.5694455 87.1900956,15.0537176 87.3375489,14.5561329 C88.2047576,14.4903744 89.1201445,14.4809803 89.9969889,14.4809803 L91.6880458,14.4809803 C92.5803653,14.5173451 93.4740514,14.4558985 94.3523035,14.2977957 C94.7451583,14.2115663 95.1095726,14.0306974 95.4122252,13.7717273 C95.5494784,13.6325396 95.6647588,13.4742435 95.7542909,13.3020233 C95.9095643,13.0489853 95.9942692,12.7607605 96,12.4659502 C95.9997021,12.3697663 95.9900229,12.2738279 95.971093,12.1794307" id="Path" fill="#00B8DB"></path>
                <path d="M39.9738414,25.9074998 C39.9967855,26.4014116 39.8005739,26.8822347 39.431673,27.2361017 C39.062772,27.5899688 38.5539906,27.7854079 38.0258172,27.7761357 C37.2357492,27.7584615 36.5311637,27.3063617 36.2287648,26.6230506 C35.4423704,27.5650947 34.2056773,28.0779573 32.9317338,27.9903452 C29.5811321,27.9903452 27,25.1099113 27,21.4911384 C27,17.8723654 29.6054824,15.0101621 32.9560841,15.0101621 C34.2304875,14.9200633 35.4683802,15.4334234 36.2531151,16.3774567 C36.5555141,15.6941456 37.2600996,15.2420458 38.0501675,15.2243716 C38.5783409,15.2150994 39.0871223,15.4105385 39.4560233,15.7644056 C39.8249242,16.1182726 40.0211358,16.5990958 39.9981917,17.0930075 L39.9738414,25.9074998 Z M30.861958,21.5048113 C30.861958,23.1637954 31.7970097,24.5493205 33.4966608,24.5493205 C35.196312,24.5493205 36.1313636,23.182026 36.1313636,21.5048113 C36.1313636,19.8275966 35.196312,18.4648597 33.4966608,18.4648597 C31.7970097,18.4648597 30.861958,19.8321543 30.861958,21.5048113" id="Shape" fill="#ED1D24"></path>
                <path d="M39.9738414,25.9074998 C39.9967855,26.4014116 39.8005739,26.8822347 39.431673,27.2361017 C39.062772,27.5899688 38.5539906,27.7854079 38.0258172,27.7761357 C37.2357492,27.7584615 36.5311637,27.3063617 36.2287648,26.6230506 C35.4423704,27.5650947 34.2056773,28.0779573 32.9317338,27.9903452 C29.5811321,27.9903452 27,25.1099113 27,21.4911384 C27,17.8723654 29.6054824,15.0101621 32.9560841,15.0101621 C34.2304875,14.9200633 35.4683802,15.4334234 36.2531151,16.3774567 C36.5555141,15.6941456 37.2600996,15.2420458 38.0501675,15.2243716 C38.5783409,15.2150994 39.0871223,15.4105385 39.4560233,15.7644056 C39.8249242,16.1182726 40.0211358,16.5990958 39.9981917,17.0930075 L39.9738414,25.9074998 Z M30.861958,21.5048113 C30.861958,23.1637954 31.7970097,24.5493205 33.4966608,24.5493205 C35.196312,24.5493205 36.1313636,23.182026 36.1313636,21.5048113 C36.1313636,19.8275966 35.196312,18.4648597 33.4966608,18.4648597 C31.7970097,18.4648597 30.861958,19.8321543 30.861958,21.5048113" id="Shape" fill="#ED1D24"></path>
                <path d="M32.9964453,16 C33.0506161,14.2216273 32.483873,12.4901401 31.4177252,11.1767677 C29.6551201,9.11111111 27,9 27,9 C27,9 27,11.989899 28.7715751,14.0505051 C29.8994524,15.297201 31.4160092,15.9969905 32.9964453,16" id="Path" fill="#8DC63F"></path>
                <path d="M34.9973009,16.3472222 C34.9507166,16.1319444 34.2403064,16 33.3027978,16 L33,17 C34.1646069,16.8819444 35.0555312,16.6006944 34.9973009,16.34375" id="Path" fill="#AB0F14"></path>
                <path d="M30.0023235,16.6492852 C30.0561692,16.894494 30.8853934,17.0291862 31.9353851,16.9946497 L32,16 C30.8369323,16.107063 29.9484778,16.4006228 30.0023235,16.6665535" id="Path" fill="#AB0F14"></path>
                <path d="M32.3352941,11 L32.0705882,15.7171492 L32,17 C32.1294118,17 32.2588235,16.9910913 32.3882353,16.9732739 L32.6529412,16.9376392 L32.9529412,15.6592428 L34,11.285078 L32.3352941,11 Z" id="Path" fill="#5F2318"></path>
                <path d="M31.9952651,35.6941676 C32.0043563,35.8432912 31.9704034,35.9919352 31.8971161,36.1238579 C31.7111497,36.2786122 30.4334914,36.6358643 28.0641413,37.1956141 C28.3094696,37.7619128 28.8706977,38.1451923 29.5105469,38.1834079 C29.6980167,38.1730729 29.88355,38.141574 30.0632804,38.0895675 C30.2499276,38.0278587 30.4446499,37.9912888 30.6418427,37.9809102 C30.9414553,37.9809102 31.0912616,38.0895675 31.0912616,38.3068821 C31.0912616,38.489624 30.9362895,38.647671 30.6211797,38.800779 C30.2274921,38.944522 29.8077555,39.011687 29.3865692,38.9983378 C28.8498651,39.0102751 28.3243888,38.8503387 27.893672,38.5439526 C27.4694498,38.2205733 27.1681522,37.7728481 27.0361601,37.2696987 C27.0103315,37.052384 27,36.9190319 27,36.8696422 C27.0015282,36.5281433 27.0808536,36.1910624 27.232458,35.8818484 C27.3985633,35.5331729 27.62567,35.2141483 27.9040035,34.9385053 C28.1718854,34.6509541 28.4944272,34.4146389 28.8544986,34.2421107 C29.1627865,34.0888243 29.5040556,34.0059843 29.8514853,34.0001012 C30.2652274,33.996555 30.6740263,34.0862313 31.04477,34.2618666 C31.3640922,34.3991517 31.628585,34.631249 31.7989672,34.9236884 C31.9504413,35.1495453 32.0194635,35.4169879 31.9952651,35.6842896 M30.5591909,35.0817354 C30.3067605,34.9646273 30.0286589,34.9070453 29.7481706,34.9138105 C29.0352993,34.9138105 28.4567371,35.4077074 28.0021525,36.3955012 C28.9835858,36.2690476 29.9437768,36.0216912 30.8588035,35.6595948 L30.9569525,35.4916698 C30.9057357,35.3020111 30.7641121,35.1464765 30.5746881,35.0718575" id="Shape" fill="#005A93"></path>
                <path d="M37.5667633,37.7128161 C37.6018713,37.7951524 37.6188759,37.8844614 37.6165606,37.9743543 C37.6017969,38.2222165 37.5391574,38.4645538 37.4323105,38.6871739 C37.3107177,38.8675788 37.1170164,38.9823718 36.9044589,39 C36.7537779,39.0005217 36.6109684,38.930759 36.5160397,38.8102507 C36.4025446,38.6913844 36.3398075,38.5307884 36.3417491,38.3640974 C36.3609477,38.1871041 36.4062883,38.0141695 36.4762019,37.8512775 C36.1679491,38.1854226 35.8013637,38.4568157 35.3955999,38.6512766 C35.0599587,38.8329541 34.6889518,38.9346053 34.3100182,38.9487121 C33.9565768,38.9539583 33.6184376,38.8004418 33.383788,38.5281998 C33.1298921,38.2516047 32.9921186,37.8830823 33.0003486,37.50256 C33.0174512,37.0565831 33.1314631,36.6202343 33.3339907,36.2256384 C33.547647,35.7584299 33.8411414,35.3345925 34.2004641,34.9743578 C34.4878917,34.6740657 34.8251926,34.4291788 35.1964106,34.2512818 C35.5200538,34.0916322 35.8733838,34.0059142 36.232195,34 C36.9791548,34 37.4074118,34.3179483 37.5020268,34.9487168 C37.6578922,34.9848008 37.79584,35.0776866 37.8904459,35.210255 C37.9620006,35.3874428 37.999217,35.5773308 38,35.7692287 C37.8555878,35.9179465 37.7061958,36.5640995 37.5617835,37.7025597 M36.6206141,35.1384602 C36.460947,35.0139316 36.2626092,34.9537505 36.0628841,34.9692296 C35.4970001,35.0143515 34.9743807,35.2982988 34.6187617,35.7538441 C34.4084229,35.9851975 34.2307315,36.2458707 34.09091,36.5282021 C33.9718323,36.7646137 33.9070903,37.0260389 33.9016802,37.2923038 C33.9016802,37.7230725 34.09091,37.9384569 34.4693697,37.9384569 C35.0001926,37.9285702 35.508222,37.7145437 35.8935732,37.3384576 C36.3614055,36.9020447 36.696873,36.3357601 36.8596413,35.7076903 C36.8472437,35.498976 36.764463,35.3012714 36.6255938,35.1487166" id="Shape" fill="#005A93"></path>
                <path d="M42.5681421,33.9836961 C42.8019071,33.9836961 43.0210619,33.929718 43.2158661,33.8937326 L43.3863197,33.8712417 C43.5396175,33.8679838 43.6899483,33.9105855 43.814889,33.9926924 C43.9239657,34.0526613 43.9934032,34.1589896 44,34.2760774 C44.0017436,34.389661 43.9523511,34.4988241 43.86359,34.5774552 C43.758365,34.664689 43.6200681,34.7099622 43.4788517,34.7034041 L43.3230084,34.7034041 L43.1963856,34.7034041 C42.9187896,34.7034041 42.4074286,34.7348913 41.6671727,34.7978657 C41.4853554,36.8730238 41.3944468,37.9675797 41.3944468,38.0815334 C41.3934802,38.1873194 41.4049103,38.2928913 41.4285375,38.3964057 C41.4318366,38.4082073 41.4318366,38.4205895 41.4285375,38.4323911 L41.4285375,38.5493436 L41.3700963,38.6393071 C41.3056646,38.7414711 41.2288738,38.8365425 41.1412013,38.9226922 C41.0652827,38.9779978 40.969811,39.0052536 40.8733456,38.9991611 C40.6201001,38.9991611 40.4447763,38.8552195 40.337634,38.5493436 C40.3544342,38.3531426 40.4037078,38.1604811 40.4837372,37.9780754 C40.5908795,37.2043893 40.6736713,36.5476558 40.7175022,35.9988784 C40.7613331,35.4501011 40.7905538,35.0992434 40.7905538,34.9283128 L40.7905538,34.8743347 L40.6931517,34.8743347 C40.4837372,34.8743347 40.2061412,34.9373091 39.9139349,34.9957854 L39.4902357,35.1262325 C39.1541985,35.0812507 39.0032253,34.9553018 39.0032253,34.7438876 C38.985664,34.6130758 39.0405809,34.482887 39.1493284,34.3975282 C39.2886431,34.3219501 39.4457357,34.2787302 39.6071183,34.2715793 L40.1866608,34.2176012 C40.4593866,34.1906121 40.6395805,34.1636231 40.7272424,34.1456304 C40.8149043,34.1276377 40.8636054,34.0916523 40.8636054,34.0286778 L40.8636054,34.0286778 L40.8636054,33.9522088 C40.8636054,33.8442526 40.8636054,33.77678 40.8636054,33.7542891 C40.8636054,33.6598275 40.8636054,33.520384 40.8636054,33.3044716 C40.8636054,33.0885592 40.8879559,33.0255848 40.8879559,32.9446176 C40.8841581,32.7932931 40.8645873,32.6426583 40.8295146,32.4948002 L40.8295146,32.4723093 C40.8401184,32.3489239 40.9052993,32.2350262 41.0097085,32.157437 C41.1135634,32.0616289 41.2526497,32.0054258 41.3993169,32 C41.5855473,31.9996567 41.7556852,32.0974354 41.8376263,32.2518987 C41.8537998,32.2879952 41.8652445,32.3257477 41.8717171,32.3643531 C41.873044,32.3853267 41.873044,32.4063539 41.8717171,32.4273275 C41.8269087,32.6188091 41.7943847,32.812568 41.774315,33.0075921 C41.7408822,33.3064353 41.7262473,33.6068182 41.730484,33.9072271 L41.730484,34.0151833 L41.7645748,34.0151833 C42.0328643,34.0190444 42.3011706,34.008531 42.5681421,33.9836961" id="Path" fill="#005A93"></path>
                <path d="M50.0460101,37.5525268 C49.7834429,37.1241257 49.5611391,36.6740709 49.3817398,36.2077093 L49.3314162,36.0867725 L49.2961898,36.0867725 C48.9791517,36.5366575 48.596693,37.0978043 48.1588785,37.7702131 C47.9504505,38.1051931 47.7219314,38.4282367 47.4744788,38.7377077 C47.3748575,38.8839906 47.2124248,38.9798053 47.0316319,38.9989312 C46.8114102,39.012977 46.6073668,38.8874462 46.5283968,38.6893329 L46.5283968,38.6457957 C46.3824397,38.3066357 46.2761089,37.9529458 46.2113587,37.5912266 C46.133576,37.1973533 46.0948212,36.7972775 46.0956147,36.3963707 L46.0956147,36.0335603 C46.0956147,35.806199 46.0956147,35.6127001 46.0956147,35.457901 C46.0956147,35.1289528 46.0956147,34.7080927 46.0352265,34.200158 C46.0100647,33.8905597 46,33.6825484 46,33.5616116 C46,33.1891261 46.1459382,33.0004647 46.4378145,33.0004647 C46.5577057,32.9959444 46.676441,33.0244787 46.7800144,33.0827017 C46.8688021,33.1277501 46.938277,33.2013843 46.9762761,33.2907131 L46.9762761,33.5180743 C46.9762761,33.5954739 46.9762761,33.7696229 46.9762761,34.0453589 C46.9762761,34.5774809 46.9360173,35.0467158 46.9360173,35.457901 C46.9026955,36.154346 46.9516545,36.852177 47.0819554,37.5380144 L47.1322789,37.5380144 L47.1322789,37.5380144 L47.1322789,37.5380144 C47.5085262,37.1209925 47.8453494,36.6725575 48.1387491,36.1980344 C48.3299784,35.9222984 48.4859813,35.7142871 48.6017254,35.5594879 L48.9187635,35.1483027 C48.9489576,35.1096029 48.9791517,35.0805781 48.9992811,35.0515533 L49.0797987,34.925779 C49.0890225,34.9066123 49.1008695,34.8887165 49.1150252,34.8725668 C49.1233064,34.8595769 49.1356309,34.8494221 49.1502516,34.8435419 L49.1502516,34.8435419 C49.1502516,34.8435419 49.1250899,34.8435419 49.1250899,34.8048421 C49.1250899,34.7661423 49.170381,34.6935803 49.2609633,34.6065057 L49.6031632,34.6065057 C49.7097044,34.5963232 49.813046,34.6450558 49.8698778,34.73228 C49.9391841,34.8711556 49.9850493,35.0197519 50.0057513,35.1724901 C50.123466,35.7120875 50.3271604,36.2309743 50.6096334,36.7108065 L50.6549245,36.7108065 C50.7304098,36.7108065 50.8562185,36.5947071 51.0323508,36.3528335 C51.2355766,36.0690961 51.4044163,35.7639695 51.5355859,35.4433886 C51.6211359,35.2305398 51.7318476,34.9596413 51.8626887,34.558131 C51.9439729,34.3207131 52.0397538,34.0881105 52.1495327,33.8615349 C52.2199856,33.7405981 52.3055356,33.6777109 52.4011503,33.6777109 C52.4935612,33.6880664 52.5846213,33.7075184 52.6728972,33.7357606 L52.8188354,33.7841353 C52.913797,33.8481459 52.9788451,33.9454134 53,34.0550338 L53,34.1227584 C52.7296275,34.9526544 52.3931417,35.7612928 51.9935298,36.5414949 C51.7491466,37.04985 51.3898269,37.4993724 50.9417685,37.8572876 L50.7455068,37.8911499 C50.4713629,37.884631 50.2146818,37.7603729 50.0460101,37.5525268" id="Path" fill="#005A93"></path>
                <path d="M58.9950647,35.69419 C59.0041463,35.8433126 58.9702297,35.9919556 58.8970211,36.1238774 C58.7112542,36.2786307 57.434967,36.6358805 55.0681595,37.1956266 C55.3122189,37.7626859 55.8734211,38.1463569 56.5130129,38.1834138 C56.7002316,38.172673 56.8855167,38.1411826 57.0651534,38.089574 C57.2514936,38.0274878 57.446063,37.9909076 57.6430947,37.9809174 C57.9423858,37.9809174 58.0920313,38.089574 58.0920313,38.3068872 C58.0920313,38.4896278 57.9372256,38.6476738 57.622454,38.8007808 C57.2273952,38.9445307 56.8064226,39.0116845 56.3840082,38.9983382 C55.8496358,39.0091699 55.3267235,38.8492908 54.8978732,38.5439561 C54.4726526,38.2218382 54.1713322,37.773601 54.0412815,37.2697106 C54.0412815,37.0523974 54,36.9190461 54,36.8696568 C54.0015265,36.5281601 54.0807668,36.1910815 54.2322086,35.8818695 C54.399681,35.5340308 54.6263765,35.2152439 54.9030334,34.9385327 C55.1724929,34.6508372 55.4964041,34.4145496 55.8576687,34.2421427 C56.1640039,34.0894273 56.5030936,34.0065993 56.8484253,34.0001349 C57.2617868,33.9960287 57.6702816,34.085734 58.0404294,34.2618985 C58.361307,34.3964107 58.6263411,34.6292313 58.7938173,34.9237159 C58.949165,35.1480309 59.0201376,35.4162653 58.9950647,35.6843121 M57.5605317,35.0817619 C57.3081766,34.9651974 57.0305123,34.9076446 56.7503817,34.9138381 C56.0382754,34.9138381 55.4568939,35.4077317 55.0062372,36.3955189 C55.9796741,36.2677815 56.9318394,36.0204417 57.839182,35.6596174 L57.9423858,35.4916936 C57.8897766,35.3027688 57.7487949,35.1477738 57.5605317,35.071884" id="Shape" fill="#005A93"></path>
                <path d="M60.9511278,31.0918735 C60.981203,31.6570901 61,32.1240083 61,32.4877129 C61,33.3330804 61,34.0850643 60.9586466,34.7387497 C60.9172932,35.392435 60.8909774,36.070695 60.8421053,36.7784446 C60.8120301,37.2699373 60.7969925,37.559918 60.7969925,37.6877061 C60.8008655,37.7891725 60.8134765,37.8897446 60.8345865,37.9875167 C60.8542398,38.0890354 60.8668225,38.1926719 60.8721805,38.2971571 C60.8731966,38.4794758 60.8207258,38.65537 60.7255639,38.7886499 C60.6425504,38.9215677 60.5184702,38.9990722 60.387218,39 C60.2872921,39.0007471 60.1912477,38.9494597 60.1203008,38.8574589 C60.0500011,38.7837999 60.0063979,38.6751332 60,38.5576483 C60.0074247,38.4951054 60.0240193,38.4350259 60.0488722,38.3807109 C60.0964489,38.2215016 60.1329378,38.0570035 60.1578947,37.8892182 C60.1879699,37.5943225 60.2180451,37.0094462 60.2518797,36.1296741 C60.2857143,35.2499021 60.3045113,34.1637032 60.3045113,32.8661623 C60.3045113,32.3156904 60.3045113,31.8831768 60.2631579,31.534217 C60.2419066,31.24388 60.2092824,30.9551585 60.1654135,30.6691897 C60.1654135,30.6052957 60.1654135,30.5708912 60.1654135,30.5610613 C60.1656424,30.4445244 60.1875778,30.3298138 60.2293233,30.2268463 L60.2669173,30.1531223 L60.4135338,30.0007596 L60.4849624,30.0007596 C60.5784955,29.9951673 60.6715956,30.0205249 60.7556391,30.0744835 C60.8369885,30.1419257 60.9041808,30.2348389 60.9511278,30.3448045 L60.9511278,30.5266568 C60.9511278,30.6298703 60.9511278,30.8166375 60.9699248,31.0869586" id="Path" fill="#005A93"></path>
                <path d="M63.954717,31.0935046 C63.9849057,31.6586052 64,32.1254275 64,32.4890575 C64,33.3342516 64,34.0860812 63.9584906,34.7396324 C63.9169811,35.3931836 63.8943396,36.0713044 63.845283,36.7789087 C63.8150943,37.2703006 63.8,37.5602218 63.8,37.6879837 C63.8040451,37.78907 63.8154164,37.8894324 63.8339623,37.9877327 C63.855556,38.0887162 63.8682167,38.1925824 63.8716981,38.2973096 C63.8727181,38.4795909 63.8200493,38.6554489 63.7245283,38.7887015 C63.6412015,38.921592 63.5166531,38.9990806 63.3849057,39 C63.2859095,38.9994572 63.1910418,38.9482781 63.1207547,38.8574964 C63.0501898,38.7838525 63.0064221,38.6752081 63,38.5577473 C63.0076666,38.4959852 63.0229586,38.4362459 63.045283,38.3808462 C63.0963688,38.2231744 63.133097,38.0582535 63.154717,37.8894543 C63.1886792,37.5946192 63.2188679,37.0098629 63.2528302,36.1302714 C63.2867925,35.2506799 63.3018868,34.1647039 63.3018868,32.8674293 C63.3018868,32.3170704 63.3018868,31.8846455 63.2641509,31.5357573 C63.2264151,31.186869 63.2037736,30.9067757 63.1660377,30.6709076 C63.1660377,30.6070266 63.1471698,30.5726292 63.1471698,30.5628013 C63.1473996,30.4462883 63.1694177,30.3316013 63.2113208,30.2286549 L63.2490566,30.1549461 L63.3962264,30.0026146 L63.4716981,30.0026146 C63.6674819,29.9790752 63.8539441,30.1161447 63.9396226,30.3465889 L63.9396226,30.5284039 C63.9396226,30.6315962 63.9396226,30.8183251 63.9584906,31.0885907" id="Path" fill="#005A93"></path>
                <path d="M66.999067,37.8198293 C67.0070672,38.2525074 66.9635945,38.684559 66.869631,39.1062243 C66.7626863,39.5054208 66.6012589,39.886746 66.3902384,40.2386493 C66.3479445,40.3022927 66.312574,40.3705871 66.2847721,40.4422871 C66.2176649,40.5954911 66.1269993,40.7363932 66.0163122,40.8594963 C65.8941296,40.9597081 65.7403495,41.0092758 65.5848589,40.998566 C65.4378914,41.0003936 65.2945211,40.9514629 65.1773752,40.8594963 C65.0743619,40.7919007 65.0085129,40.6775806 65,40.5515562 C65.0082796,40.4503384 65.0507127,40.3553782 65.1198481,40.2833503 C65.2401786,40.1433466 65.3682308,40.0106773 65.5033622,39.8860082 C65.7854794,39.5340034 65.9812064,39.1165065 66.0738393,38.669148 C66.0603946,38.600403 66.0523782,38.5306374 66.0498697,38.4605434 C66.0498697,38.4605434 66.0498697,38.3860418 66.0498697,38.2916731 L66.0498697,38.137703 C66.0416111,38.0328397 66.0156496,37.9302924 65.9731669,37.8347297 C65.9270263,37.727702 65.8978869,37.6136509 65.8868762,37.4969889 C65.8825652,37.3618323 65.9350291,37.2313789 66.030694,37.139381 C66.1242961,37.0457406 66.250616,36.9955422 66.3806506,37.0003113 C66.5898651,37.0239397 66.781366,37.1329734 66.9127763,37.3032846 C66.9738145,37.4607652 66.9984405,37.6308581 66.9846852,37.7999622" id="Path" fill="#005A93"></path>
                <path d="M75.8805257,35.3817036 C75.8870096,35.4763607 75.8997799,35.5705169 75.9187575,35.6635896 C75.9691958,36.0545492 75.9963215,36.4479918 76,36.8419656 C75.9995966,37.2712379 75.9740679,37.700144 75.9235364,38.1266265 C75.8820943,38.4936035 75.8101776,38.8567605 75.7084827,39.2125809 C75.6018868,39.6161502 75.4412286,40.0045261 75.2305854,40.3678515 C75.0537,40.6911131 74.8300203,40.9883169 74.5663082,41.2504782 C74.3421501,41.4771452 74.0805036,41.6661159 73.7921147,41.8096291 C73.55219,41.9285884 73.2874831,41.9933687 73.0179211,41.9990935 C72.7882335,42.0089342 72.5625741,41.9383871 72.3823178,41.800387 C72.2228109,41.6816008 72.1321161,41.4958866 72.1385902,41.3013101 C72.1385902,41.0794981 72.2389486,40.9639711 72.4396655,40.9639711 C72.5604342,40.9759376 72.6783184,41.0071676 72.7885305,41.0563927 C72.9000754,41.0993823 73.0176852,41.125866 73.1373955,41.1349511 C73.3937994,41.1074893 73.6346643,41.0023576 73.8255675,40.8345808 C74.1119375,40.6161436 74.3479617,40.342272 74.5185185,40.0305124 C74.7219327,39.6488939 74.8622257,39.2388014 74.9342891,38.8151678 C75.0419867,38.2341926 75.0931859,37.6447421 75.0872162,37.0545354 C75.1060923,36.5159146 75.0449353,35.9774617 74.9056153,35.4556409 C74.786141,35.0813333 74.6188769,34.89649 74.427718,34.89649 C74.276667,34.9194581 74.1338358,34.9781956 74.0119474,35.06747 C73.804334,35.201343 73.6120867,35.3562561 73.4384707,35.5295783 C73.2533991,35.7066852 73.1085416,35.9191534 73.0131422,36.1534244 C72.9179216,36.3874244 72.8692788,36.6367137 72.869773,36.8881765 C72.8575204,37.0922084 72.9377772,37.2912827 73.0896057,37.4334642 C73.2605833,37.5746592 73.4816996,37.6459295 73.7060932,37.6321707 C73.8690327,37.6169407 74.0294851,37.5828074 74.1839904,37.5305069 C74.3375762,37.4751335 74.4984492,37.4409108 74.6618877,37.4288431 C74.8673835,37.4288431 74.9677419,37.5166437 74.9677419,37.6968659 C74.9718004,37.8213938 74.9107181,37.9395222 74.8052569,38.0110995 C74.6365886,38.1129855 74.4504811,38.184969 74.255675,38.2236693 C74.2103305,38.2264202 74.1662179,38.2390588 74.1266428,38.2606379 C73.8981536,38.3014511 73.6660109,38.3200282 73.4336918,38.3160909 C72.4778973,38.3160909 72,37.8539827 72,36.9574927 C72.0057577,36.5295016 72.1189166,36.1092643 72.3297491,35.7329059 C72.5684031,35.3037924 72.8933695,34.9251452 73.2855436,34.619225 C73.4985934,34.4327688 73.7384364,34.2771185 73.9976105,34.1571168 C74.1913157,34.0639736 74.4028151,34.0104859 74.6188769,34 C74.8448125,34.0133859 75.0642595,34.0783118 75.2592593,34.1894644 C75.3553302,34.1708483 75.4528419,34.1600281 75.5507766,34.1571168 C75.6597361,34.1432894 75.7691515,34.1792278 75.8468582,34.2543672 C75.9245648,34.3295065 75.9617311,34.435307 75.9474313,34.5406666 C75.9400809,34.635802 75.9240893,34.7301276 75.8996416,34.8225527 C75.8787178,34.8996647 75.8659088,34.9786245 75.8614098,35.0582279 L75.8614098,35.0582279 L75.8614098,35.178376 C75.8564895,35.2352701 75.8564895,35.292462 75.8614098,35.349356" id="Path" fill="#005A93"></path>
                <path d="M81.9950647,35.6942551 C82.0041463,35.8433747 81.9702297,35.9920148 81.8970211,36.123934 C81.7112542,36.2786843 80.434967,36.635927 78.0681595,37.1956621 C78.3132246,37.7619459 78.8738504,38.1452153 79.5130129,38.1834299 C79.7002316,38.1726893 79.8855167,38.1411995 80.0651534,38.0895919 C80.2514936,38.027507 80.446063,37.9909274 80.6430947,37.9809375 C80.9423858,37.9809375 81.0920313,38.0895919 81.0920313,38.3069008 C81.0920313,38.4896379 80.9372256,38.6476807 80.622454,38.8007847 C80.2273952,38.9445318 79.8064226,39.0116843 79.3840082,38.9983383 C78.8496358,39.0091697 78.3267235,38.8492937 77.8978732,38.5439651 C77.4726526,38.2218535 77.1713322,37.7736252 77.0412815,37.2697447 C77.0412815,37.0524357 77,36.9190871 77,36.8696987 C77.0015265,36.5282088 77.0807668,36.1911368 77.2322086,35.8819309 C77.399681,35.534099 77.6263765,35.2153184 77.9030334,34.9386127 C78.1724929,34.6509228 78.4964041,34.4146398 78.8576687,34.2422364 C79.1640039,34.089524 79.5030936,34.0066976 79.8484253,34.0002333 C80.2619362,33.994793 80.6707549,34.0845677 81.0404294,34.2619918 C81.361307,34.3965013 81.6263411,34.6293174 81.7938173,34.9237962 C81.949165,35.1481068 82.0201376,35.4163358 81.9950647,35.6843774 M80.5605317,35.081839 C80.3083721,34.964734 80.0305689,34.9071535 79.7503817,34.9139185 C79.0382754,34.9139185 78.4568939,35.4078024 78.0062372,36.3955702 C78.9800685,36.2752127 79.933832,36.0362118 80.8443422,35.6843774 L80.9423858,35.5164568 C80.891224,35.3268031 80.7497524,35.1712726 80.5605317,35.0966555" id="Shape" fill="#005A93"></path>
                <path d="M86.5681421,33.9836961 C86.8019071,33.9836961 87.0210619,33.929718 87.2158661,33.8937326 L87.3863197,33.8712417 C87.5396175,33.8679838 87.6899483,33.9105855 87.814889,33.9926924 C87.9239657,34.0526613 87.9934032,34.1589896 88,34.2760774 C88.0017436,34.389661 87.9523511,34.4988241 87.86359,34.5774552 C87.758365,34.664689 87.6200681,34.7099622 87.4788517,34.7034041 L87.3230084,34.7034041 L87.1963856,34.7034041 C86.9187896,34.7034041 86.4074286,34.7348913 85.6671727,34.7978657 C85.4853554,36.8730238 85.3944468,37.9675797 85.3944468,38.0815334 C85.3934802,38.1873194 85.4049103,38.2928913 85.4285375,38.3964057 C85.4318366,38.4082073 85.4318366,38.4205895 85.4285375,38.4323911 L85.4285375,38.5493436 L85.3700963,38.6393071 C85.3056646,38.7414711 85.2288738,38.8365425 85.1412013,38.9226922 C85.0652827,38.9779978 84.969811,39.0052536 84.8733456,38.9991611 C84.6201001,38.9991611 84.4447763,38.8552195 84.337634,38.5493436 C84.3544342,38.3531426 84.4037078,38.1604811 84.4837372,37.9780754 C84.5908795,37.2043893 84.6736713,36.5476558 84.7175022,35.9988784 C84.7613331,35.4501011 84.7905538,35.0992434 84.7905538,34.9283128 L84.7905538,34.8743347 L84.6980218,34.8743347 C84.4837372,34.8743347 84.2110113,34.9373091 83.9139349,34.9957854 L83.4902357,35.1262325 C83.1541985,35.0812507 83.0032253,34.9553018 83.0032253,34.7438876 C82.985664,34.6130758 83.0405809,34.482887 83.1493284,34.3975282 C83.2886431,34.3219501 83.4457357,34.2787302 83.6071183,34.2715793 L84.1866608,34.2176012 C84.4593866,34.1906121 84.6395805,34.1636231 84.7272424,34.1456304 C84.8149043,34.1276377 84.8636054,34.0916523 84.8636054,34.0286778 L84.8636054,34.0286778 L84.8636054,33.9522088 C84.8636054,33.8442526 84.8636054,33.77678 84.8636054,33.7542891 C84.8636054,33.6598275 84.8636054,33.520384 84.8879559,33.3044716 C84.9123064,33.0885592 84.8879559,33.0255848 84.8879559,32.9446176 C84.8841581,32.7932931 84.8645873,32.6426583 84.8295146,32.4948002 L84.8295146,32.4723093 C84.8413335,32.3482104 84.9083446,32.2341962 85.0145786,32.157437 C85.1160885,32.0611542 85.2539053,32.0047591 85.3993169,32 C85.5855473,31.9996567 85.7556852,32.0974354 85.8376263,32.2518987 C85.8561732,32.2872011 85.8677194,32.325288 85.8717171,32.3643531 C85.8717171,32.3643531 85.8717171,32.3913421 85.8717171,32.4273275 C85.8226945,32.6182501 85.7885166,32.8121662 85.7694449,33.0075921 C85.7360121,33.3064353 85.7213772,33.6068182 85.7256139,33.9072271 L85.7256139,34.0151833 L85.7597047,34.0151833 C86.0379283,34.0171199 86.3160262,34.003601 86.5924926,33.9746997" id="Path" fill="#005A93"></path>
                <path d="M95.5767097,37.703508 C95.6118188,37.7864396 95.628824,37.8763945 95.6265086,37.9669374 C95.6114027,38.2159245 95.5505522,38.4596219 95.4472327,38.6849118 C95.3235843,38.8668525 95.1283177,38.9823171 94.9143849,39 C94.7636994,39.0005255 94.6208854,38.9302583 94.5259539,38.8088786 C94.4138009,38.6886295 94.3528123,38.5267603 94.3566377,38.3594989 C94.373624,38.1813842 94.4173088,38.0071107 94.4861148,37.8429706 C94.1798125,38.1934215 93.8112059,38.4792917 93.4004997,38.6849118 C93.0630966,38.8679898 92.6904434,38.9703577 92.3099047,38.9844982 C91.9564524,38.9897824 91.6183029,38.8351557 91.383646,38.560945 C91.1315714,38.2811577 90.9940921,37.9107744 91.0001948,37.5278884 C91.0202316,37.0791553 91.1340778,36.6403037 91.3338472,36.2417329 C91.5492502,35.7722053 91.8425462,35.3456047 92.2003473,34.9814038 C92.4877837,34.6789401 92.825095,34.4322824 93.1963244,34.2530989 C93.5199775,34.0922948 93.8733184,34.005957 94.2321406,34 C94.9841033,34 95.4073936,34.3202476 95.5020114,34.9555774 C95.6591886,34.9886698 95.7981821,35.0829337 95.8904425,35.2190068 C95.9619994,35.3974759 95.999217,35.5887371 96,35.7820227 C95.8555833,35.9318159 95.7061867,36.5826416 95.5617701,37.7293344 M94.6205717,35.1466928 C94.4608996,35.0212637 94.2625557,34.9606474 94.0628245,34.9762385 C93.4981913,35.0212527 92.9769447,35.3074804 92.6236375,35.7665268 C92.4099671,35.9967311 92.2319067,36.2598265 92.0957697,36.5464846 C91.976883,36.7791266 91.91208,37.037376 91.906534,37.3006159 C91.906534,37.7344997 92.0957697,37.9514416 92.474241,37.9514416 C93.0014231,37.9379498 93.5051671,37.7226953 93.8885285,37.3471035 C94.3547679,36.9070525 94.6885199,36.336667 94.8496464,35.7045434 C94.8374871,35.4967833 94.7565741,35.2997412 94.6205717,35.1466928" id="Shape" fill="#005A93"></path>
                <path d="M100.991633,38.7596399 C100.520009,38.9223349 100.022715,39.0007659 99.5231374,38.9912448 C98.8641023,39.0418729 98.2070109,38.8718702 97.658148,38.5087346 C97.2188252,38.1731577 96.9738467,37.6469454 97.00222,37.0998049 C97.0220865,36.5790083 97.2244797,36.0811017 97.5749333,35.6908752 C97.9680938,35.1971679 98.4450677,34.7743465 98.984689,34.4411739 C99.3863005,34.1767543 99.8533044,34.0249767 100.335705,34.0020896 C100.665728,33.9842031 100.991583,34.0815889 101.255962,34.2771204 C101.480669,34.4507597 101.60794,34.7195892 101.598611,35.0008857 C101.599773,35.1780809 101.535384,35.3496203 101.417497,35.4833959 C101.316329,35.6144681 101.158714,35.6912575 100.991633,35.6908752 C100.880655,35.7041754 100.769857,35.664786 100.693039,35.584723 C100.630592,35.4996706 100.582643,35.4051431 100.551084,35.3048671 C100.54212,35.2424581 100.522246,35.1820538 100.492345,35.1263383 C100.459506,35.0644618 100.408268,35.0139553 100.345495,34.9815853 C100.26956,34.9581725 100.189981,34.9483672 100.110536,34.9526347 C99.7099002,34.9852686 99.3337728,35.1561246 99.0483238,35.4351448 C98.7697471,35.6676552 98.5065141,35.9174602 98.2602312,36.1830356 C98.0960384,36.3630892 97.9755218,36.5775822 97.9077923,36.8102988 C97.8784224,36.9502268 97.8588424,37.0612041 97.8490524,37.1384057 C97.8498391,37.1875696 97.863316,37.2357259 97.8882123,37.2783337 C97.9172675,37.5700367 98.1047213,37.823182 98.3777109,37.9393726 C98.7798447,38.1250853 99.2213747,38.2127926 99.665092,38.195103 C100.116977,38.2040877 100.564675,38.1082233 100.972053,37.9152471 C101.089872,37.8593234 101.201433,37.7914023 101.304912,37.7125929 C101.417073,37.6343548 101.549493,37.5891714 101.686721,37.5823151 C101.877625,37.5823151 101.98042,37.7077677 102,37.9683232 L102,38.1227265 C101.740871,38.4258 101.402196,38.6528112 101.021003,38.7789403" id="Path" fill="#005A93"></path>
                <path d="M106.568281,33.9836642 C106.802024,33.9836642 107.021157,33.929687 107.220812,33.8937022 L107.386379,33.8712117 C107.54108,33.8685668 107.692742,33.9110663 107.819777,33.9926604 C107.926356,34.0542519 107.99363,34.1600609 108,34.2760409 C108.001743,34.3896227 107.952356,34.498784 107.863603,34.5774138 C107.758668,34.6650793 107.620183,34.7104175 107.478902,34.7033607 L107.327944,34.7033607 L107.196464,34.7033607 C106.918895,34.7033607 106.412453,34.7348474 105.667399,34.7978208 C105.4856,36.8729456 105.3947,37.967484 105.3947,38.0814359 C105.395371,38.1873813 105.408433,38.2929497 105.433657,38.3963031 C105.43534,38.4082477 105.43534,38.4203433 105.433657,38.4322879 L105.433657,38.5492386 L105.370352,38.6392006 C105.305926,38.7413629 105.229143,38.8364328 105.141479,38.9225811 C105.065792,38.9782788 104.97016,39.0055825 104.873649,38.9990489 C104.620429,38.9990489 104.445122,38.8551096 104.34286,38.5492386 C104.357948,38.3532574 104.405578,38.1605856 104.484079,37.9779795 C104.59608,37.2043058 104.673995,36.5475828 104.722691,35.9988143 C104.771387,35.4500458 104.790866,35.0991937 104.790866,34.9282658 L104.790866,34.8742886 L104.698343,34.8742886 C104.484079,34.8742886 104.21138,34.937262 103.914332,34.9957374 L103.490674,35.1261824 C103.159539,35.0812013 103.003711,34.9552544 103.003711,34.7438436 C102.984971,34.6138271 103.037994,34.483785 103.14493,34.3974897 C103.285752,34.3213816 103.444546,34.2781499 103.607545,34.2715428 C103.700068,34.2715428 103.894853,34.2400561 104.187031,34.2175656 C104.479209,34.1950751 104.635037,34.1635884 104.722691,34.1455959 C104.810344,34.1276035 104.859041,34.0916187 104.859041,34.0286453 L104.859041,34.0286453 L104.859041,33.9521775 C104.859041,33.8442231 104.859041,33.7767515 104.859041,33.754261 C104.859041,33.6598008 104.859041,33.5203597 104.883389,33.3044507 C104.89069,33.1845961 104.89069,33.0644571 104.883389,32.9446025 C104.879591,32.7932804 104.860022,32.642648 104.824953,32.4947922 L104.824953,32.4723017 C104.836771,32.3482049 104.903775,32.2341925 105.009999,32.1574345 C105.111499,32.0611532 105.249303,32.004759 105.3947,32 C105.580912,31.9996567 105.751034,32.0974339 105.832967,32.2518947 C105.851512,32.2871965 105.863057,32.3252828 105.867054,32.3643472 C105.867054,32.3643472 105.867054,32.3913358 105.867054,32.4273207 C105.820398,32.6186694 105.786249,32.8124379 105.764792,33.0075759 C105.731363,33.3064143 105.716729,33.6067924 105.720965,33.9071965 L105.720965,34.015151 L105.759922,34.015151 C106.0365,34.0171033 106.312952,34.0035843 106.58776,33.974668" id="Path" fill="#005A93"></path>
                <path d="M108.904264,35.3486239 L108.904264,35.4266055 L108.904264,35.6055046 C108.894877,36.1839827 108.860548,36.7613326 108.801437,37.3348624 C108.773071,37.6834862 108.751797,37.9311927 108.74116,38.0779817 C108.787397,38.1604167 108.81668,38.2567033 108.826258,38.3577982 C108.784553,38.5314675 108.710243,38.6890665 108.609966,38.8165138 C108.54399,38.9166572 108.451875,38.9819552 108.351126,39 C108.253392,38.9967773 108.162624,38.9338096 108.106468,38.8302752 C108.03564,38.7212909 107.997837,38.582723 108.000096,38.440367 C108.011487,38.1702277 108.039948,37.9017475 108.085194,37.6376147 C108.141712,37.2932574 108.176105,36.9434397 108.188021,36.5917431 L108.188021,36.0504587 C108.184759,35.9587141 108.172852,35.8678277 108.152563,35.7798165 C108.135241,35.6849211 108.124561,35.5882001 108.120652,35.4908257 C108.121112,35.3744479 108.153823,35.2621438 108.212841,35.1743119 C108.268329,35.0805969 108.349608,35.0181638 108.43977,35 C108.484849,34.9709153 108.534795,34.9567313 108.585146,34.9587156 C108.6414,34.9531476 108.697768,34.9674152 108.748251,35 C108.795853,35.0505359 108.836599,35.1110004 108.868807,35.1788991 L108.921993,35.2706422 L108.904264,35.3486239 Z M108.567417,32.0137615 C108.678718,32.0092789 108.787356,32.0583062 108.872353,32.1513761 C108.948693,32.2235161 108.995637,32.3365423 109,32.4587156 C108.997214,32.6247619 108.95376,32.785379 108.875898,32.9174312 C108.811119,33.0511871 108.705384,33.142936 108.585146,33.1697248 C108.381254,33.1349118 108.200274,32.9833146 108.092285,32.7568807 L108.092285,32.5917431 C108.166746,32.1972477 108.333397,32 108.585146,32" id="Shape" fill="#005A93"></path>
                <path d="M112.117591,38.9528342 C112.03535,38.8586779 111.974802,38.74546 111.940727,38.6221212 C111.797041,38.2034089 111.611123,37.8025144 111.386233,37.4264665 L111.037285,36.7803041 L110.712237,36.123966 C110.554377,35.7749054 110.378849,35.4352138 110.186424,35.1063876 C110.073552,34.9874379 110.006981,34.8275533 110,34.658653 C110.009524,34.5579912 110.030388,34.4589138 110.062141,34.3635553 C110.076171,34.315162 110.087346,34.265883 110.095602,34.2160064 C110.197417,34.0133128 110.39143,33.8820764 110.607075,33.8700297 C110.771921,33.8687391 110.920343,33.9760833 110.979924,34.139688 C111.026494,34.2665871 111.05392,34.4005262 111.061185,34.5365436 C111.067539,34.6630097 111.090053,34.7879646 111.128107,34.9079597 C111.468952,35.8244984 111.936156,36.6818877 112.51434,37.4519059 C112.69895,37.2674526 112.839834,37.0390322 112.92543,36.785392 C113.068834,36.4461992 113.283939,35.8560037 113.570746,35.0148055 L114.000956,33.7886234 L114.000956,33.6308988 L114.000956,33.5800198 C113.999663,33.4291714 114.052688,33.2835222 114.14914,33.1729885 C114.231771,33.0635316 114.356607,32.9999023 114.488528,33 C114.737094,33 114.909178,33.19334 115,33.5800198 L115,33.7275687 C114.726946,34.294882 114.482806,34.877442 114.268642,35.4727158 C113.812938,36.642931 113.420969,37.5994548 113.092734,38.3422871 L113.059273,38.489836 C112.979989,38.6962464 112.845317,38.873213 112.672084,38.9986252 L112.533461,38.9986252 C112.399169,39.0076478 112.265555,38.9720937 112.151052,38.8968674" id="Path" fill="#005A93"></path>
                <path d="M119.954162,35.6876238 C119.963169,35.8370427 119.92953,35.9859809 119.856921,36.1181647 C119.672675,36.2732254 118.406839,36.6311847 116.059413,37.1920426 C116.301474,37.7602283 116.85808,38.1446613 117.492435,38.1817918 C117.67812,38.1710297 117.861888,38.1394768 118.040054,38.0877657 C118.223125,38.0256276 118.414402,37.98897 118.608145,37.9788933 C118.910103,37.9788933 119.058523,38.0877657 119.058523,38.3055105 C119.058523,38.5232553 118.904985,38.646974 118.592791,38.8003851 C118.200967,38.9444206 117.783442,39.0117077 117.364486,38.9983349 C116.834204,39.0111034 116.314944,38.850712 115.890521,38.5430503 C115.468782,38.2202925 115.169929,37.7711651 115.040943,37.2662738 C115.015354,37.048529 115,36.9149129 115,36.8654254 C115.001514,36.5232505 115.080105,36.1855023 115.230307,35.8756762 C115.394875,35.5263104 115.619881,35.2066543 115.895639,34.9304657 C116.175897,34.6416838 116.511322,34.4080945 116.8834,34.24259 C117.187026,34.0890628 117.523465,34.0060392 117.866044,34.0001014 C118.275958,33.9965482 118.680974,34.086402 119.048287,34.262385 C119.366537,34.3971644 119.629401,34.6304474 119.795506,34.9255169 C119.949581,35.1502775 120.019973,35.4190446 119.995105,35.6876238 M118.572319,35.0838768 C118.32203,34.9670808 118.04664,34.9094137 117.768803,34.9156194 C117.062528,34.9156194 116.485907,35.4104941 116.038941,36.4002433 C116.997901,36.2674197 117.935297,36.0162865 118.828216,35.6529826 L118.930575,35.4847252 C118.876346,35.2964853 118.737201,35.1419394 118.551847,35.0640818" id="Shape" fill="#005A93"></path>
            </g>
        </g>
    </g>
</svg>