<svg viewBox="0 0 254.59 90" xmlns="http://www.w3.org/2000/svg"><path d="m35.36 49.49c0 1.66 1.27 4.39 6.33 4.39 3.89 0 6.26-2.48 8.08-2.48a3.28 3.28 0 0 1 3.29 3.39c0 3.84-6.42 6.37-12.39 6.37-8.49 0-13.8-6.32-13.8-14.25 0-7.59 5.72-14.26 13.8-14.26 7.79 0 12.79 6.52 12.79 13.4 0 2.78-1.31 3.44-3.84 3.44zm10.22-5.41a5.37 5.37 0 0 0 -5.11-4.76 5.37 5.37 0 0 0 -5.11 4.76z" fill="#ed1d24"/><path d="m0 25a3.95 3.95 0 1 1 7.89 0v9.1h.11a11.89 11.89 0 0 1 6.67-2c5.46 0 9.81 2.83 9.81 9.3v14.68a3.95 3.95 0 1 1 -7.89 0v-12.48c0-2.74-1.61-4.76-4.34-4.76s-4.35 2-4.35 4.76v12.48a3.93 3.93 0 0 1 -3.95 4.1 3.92 3.92 0 0 1 -3.95-4.1z" fill="#ed1d24"/><path d="m84.79 25a3.95 3.95 0 1 1 7.89 0v31a3.95 3.95 0 1 1 -7.89 0z" fill="#ed1d24"/><path d="m99.55 40.26h-.9c-2.53 0-4.15-1.12-4.15-3.64s1.62-3.62 4.15-3.62h.9v-5.18a3.95 3.95 0 1 1 7.89 0v5.18h2.17c2.53 0 4.15 1.11 4.15 3.64s-1.62 3.64-4.15 3.64h-2.17v15.8a3.95 3.95 0 1 1 -7.89 0z" fill="#ed1d24"/><path d="m115.73 25a3.95 3.95 0 1 1 7.89 0v9.1h.1a11.89 11.89 0 0 1 6.67-2c5.46 0 9.81 2.83 9.81 9.3v14.68a3.94 3.94 0 1 1 -7.88 0v-12.48c0-2.74-1.62-4.76-4.35-4.76s-4.35 2-4.35 4.76v12.48a3.95 3.95 0 1 1 -7.89 0z" fill="#ed1d24"/><path d="m149.73 57.3-6.72-16a18.39 18.39 0 0 1 -1.67-4.91 3.68 3.68 0 0 1 3.84-3.69 4.13 4.13 0 0 1 4 3l4.65 12 4.45-10.7c1-2.43 2.12-4.3 4.29-4.3a3.79 3.79 0 0 1 4.05 4 9.47 9.47 0 0 1 -1 3.44l-11.62 27.21c-.91 2.08-1.56 3.75-4.3 3.75a3.68 3.68 0 0 1 -3.89-3.54c0-1.37.4-2.27 1.31-4.35z" fill="#ed1d24"/><path d="m199.13 13a4.71 4.71 0 1 1 -4.7 4.7 4.7 4.7 0 0 1 4.7-4.7" fill="#00b8db"/><path d="m195.19 36.77a3.95 3.95 0 1 1 7.89 0v19.31a3.95 3.95 0 1 1 -7.89 0z" fill="#00b8db"/><path d="m231.84 56.08a3.93 3.93 0 0 1 -4 4.1 4.09 4.09 0 0 1 -3.69-2.53 7.86 7.86 0 0 1 -6.77 3c-6.88 0-12.18-6.32-12.18-14.26s5.3-14.25 12.18-14.25a9.21 9.21 0 0 1 6.62 2.25v-9.39a3.95 3.95 0 1 1 7.89 0zm-18.71-9.66c0 3.65 1.92 6.68 5.41 6.68s5.41-3 5.41-6.68-1.92-6.67-5.41-6.67-5.41 3-5.41 6.67" fill="#00b8db"/><path d="m237.2 51.43c2.48 0 4.2 2.28 7.58 2.28 1.62 0 2.23-.76 2.23-1.57 0-1.62-1.72-1.77-6.12-3.59-4-1.67-6.22-3.18-6.22-7.44 0-4.49 3.84-8.94 10.16-8.94 3.19 0 9.11 1.51 9.11 5.61a3.2 3.2 0 0 1 -3.3 3.33c-1.56 0-3.88-2-6.31-2-1.07 0-2.08.51-2.08 1.68 0 3.08 12.34 2.37 12.34 11 0 5.57-4.7 8.85-10.11 8.85-5 0-10.52-2-10.52-5.46 0-2.22 1.47-3.79 3.24-3.79" fill="#00b8db"/><path d="m201.2 26a2 2 0 0 0 -.79-1.13 4.06 4.06 0 0 0 -1.44-.63 4.44 4.44 0 0 0 -.94-.16h-.03a2.25 2.25 0 0 0 -.44 0 37.82 37.82 0 0 1 -4.4.28 21.68 21.68 0 0 1 -9.56-2 6.94 6.94 0 0 0 2.32-2.28 9 9 0 0 0 1.47-4.48 5.6 5.6 0 0 0 -.05-.6 5.38 5.38 0 0 0 -1.75-3.37 6 6 0 0 0 -3.86-1.22h-.05a5.43 5.43 0 0 0 -4.17 2.08 7.85 7.85 0 0 0 -1.13 1.78c-.12-.31-.24-.63-.34-1a11.34 11.34 0 0 1 -.55-3.57 24.11 24.11 0 0 1 1.11-6.1 3.26 3.26 0 0 0 .06-.62v.02a3 3 0 0 0 -1.13-2.23 3.36 3.36 0 0 0 -2.15-.77 3.79 3.79 0 0 0 -3.5 2.8c-.72 2.23-1.79 9-1.81 18.64 0 2.75.09 5.71.32 8.84a187.22 187.22 0 0 0 2.58 19.38c.51 2.86 1 5.38 1.45 7.31a39.52 39.52 0 0 0 1 3.88 4.91 4.91 0 0 0 1.25 1.94 3.73 3.73 0 0 0 2.61 1.08 4.32 4.32 0 0 0 1.07-.15 2.8 2.8 0 0 0 1.8-1.56 4 4 0 0 0 .34-1.66 4.81 4.81 0 0 0 -.17-1.27c-.17-.62-.92-2.75-1.69-5.51a35.1 35.1 0 0 1 -1.46-7.87v-.13a5.64 5.64 0 0 1 .11-1.17 13.07 13.07 0 0 1 2.37 2.79c.92 1.32 1.88 2.91 2.75 4.45s1.71 3.1 2.38 4.35a26.2 26.2 0 0 0 1.62 2.78 5 5 0 0 0 3.54 2.15h.27a3.52 3.52 0 0 0 2.32-.85 3.26 3.26 0 0 0 1.19-2.39v-.1a4.68 4.68 0 0 0 -.84-2.46c-1.11-1.7-3.6-4.79-5.87-8.66s-4.15-8.29-4.16-12.28v-.08a11.46 11.46 0 0 1 .45-3.26c1.8-.14 3.7-.16 5.52-.16h3.51a24.76 24.76 0 0 0 5.53-.39 5 5 0 0 0 2.2-1.12 4.15 4.15 0 0 0 .71-1 3.6 3.6 0 0 0 .51-1.78 3.23 3.23 0 0 0 -.06-.61" fill="#00b8db"/><path d="m82.22 56.11a3.93 3.93 0 0 1 -4 4.1 4.1 4.1 0 0 1 -3.69-2.53 7.86 7.86 0 0 1 -6.77 3c-6.88 0-12.18-6.32-12.18-14.26s5.35-14.22 12.23-14.22a7.83 7.83 0 0 1 6.77 3 4.1 4.1 0 0 1 3.69-2.53 3.93 3.93 0 0 1 4 4.1zm-18.71-9.66c0 3.64 1.92 6.68 5.41 6.68s5.41-3 5.41-6.68-1.92-6.67-5.41-6.67-5.41 3-5.41 6.67" fill="#ed1d24"/><path d="m82.22 56.11a3.93 3.93 0 0 1 -4 4.1 4.1 4.1 0 0 1 -3.69-2.53 7.86 7.86 0 0 1 -6.77 3c-6.88 0-12.18-6.32-12.18-14.26s5.35-14.22 12.23-14.22a7.83 7.83 0 0 1 6.77 3 4.1 4.1 0 0 1 3.69-2.53 3.93 3.93 0 0 1 4 4.1zm-18.71-9.66c0 3.64 1.92 6.68 5.41 6.68s5.41-3 5.41-6.68-1.92-6.67-5.41-6.67-5.41 3-5.41 6.67" fill="#ed1d24"/><path d="m68.11 34.26a13.47 13.47 0 0 0 -3.52-9.55c-3.93-4.09-9.85-4.31-9.85-4.31s0 5.92 3.95 10a13.48 13.48 0 0 0 9.42 3.86" fill="#8dc63f"/><path d="m71.83 35.12c-.08-.62-1.3-1-2.91-1l-.52 2.88c2-.34 3.53-1.15 3.43-1.89" fill="#ab0f14"/><path d="m63.7 36.19c.1.71 1.64 1.1 3.59 1l.12-2.88c-2.16.31-3.81 1.16-3.71 1.93" fill="#ab0f14"/><path d="m67.86 23.67-.45 10.59-.12 2.88q.33 0 .66-.06l.45-.08.51-2.87 1.78-9.82z" fill="#5f2318"/><g fill="#005a93"><path d="m65.2 76.07a1.65 1.65 0 0 1 -.19.87q-.54.47-7.42 2.17a3.25 3.25 0 0 0 2.8 2 4.61 4.61 0 0 0 1.07-.19 4.12 4.12 0 0 1 1.12-.22q.87 0 .87.66c0 .37-.3.69-.91 1a6.13 6.13 0 0 1 -2.39.4 4.66 4.66 0 0 1 -2.89-.92 4.79 4.79 0 0 1 -1.66-2.58c-.05-.44-.07-.71-.07-.81a4.76 4.76 0 0 1 .45-2 6.82 6.82 0 0 1 1.3-1.91 6.16 6.16 0 0 1 1.84-1.41 4.35 4.35 0 0 1 1.93-.49 5.1 5.1 0 0 1 2.31.53 3.15 3.15 0 0 1 1.46 1.34 2.46 2.46 0 0 1 .38 1.54m-2.78-1.22a3.4 3.4 0 0 0 -1.57-.34c-1.38 0-2.5 1-3.38 3a22.22 22.22 0 0 0 5.53-1.49l.19-.34a1.26 1.26 0 0 0 -.74-.85"/><path d="m77.36 80a1.19 1.19 0 0 1 .1.51 3.64 3.64 0 0 1 -.37 1.39 1.43 1.43 0 0 1 -1.06.61 1 1 0 0 1 -.78-.37 1.22 1.22 0 0 1 -.35-.87 3.41 3.41 0 0 1 .27-1 7.16 7.16 0 0 1 -2.17 1.56 5.08 5.08 0 0 1 -2.18.58 2.44 2.44 0 0 1 -1.86-.82 2.82 2.82 0 0 1 -.77-2 5.82 5.82 0 0 1 .67-2.49 8.4 8.4 0 0 1 1.74-2.44 6.89 6.89 0 0 1 2-1.41 5 5 0 0 1 2.08-.49c1.5 0 2.36.62 2.55 1.85a1.33 1.33 0 0 1 .78.51 2.87 2.87 0 0 1 .22 1.09c-.29.29-.59 1.55-.88 3.77m-1.89-5a1.65 1.65 0 0 0 -1.12-.33 4.13 4.13 0 0 0 -2.9 1.53 6.59 6.59 0 0 0 -1.06 1.51 3.39 3.39 0 0 0 -.38 1.49q0 1.26 1.14 1.26a4.27 4.27 0 0 0 2.86-1.17 6.58 6.58 0 0 0 1.94-3.18 1.75 1.75 0 0 0 -.47-1.09"/><path d="m88 71.6c.48 0 .93-.12 1.33-.2l.35-.05a1.46 1.46 0 0 1 .88.27.78.78 0 0 1 .38.63.91.91 0 0 1 -.28.67 1.1 1.1 0 0 1 -.79.28h-.32-.26c-.57 0-1.62.07-3.14.21q-.56 6.92-.56 7.3a3.26 3.26 0 0 0 .07.7.16.16 0 0 1 0 .08v.26l-.12.2a3.47 3.47 0 0 1 -.47.63.8.8 0 0 1 -.55.17c-.52 0-.88-.32-1.1-1a4.28 4.28 0 0 1 .3-1.27c.22-1.72.39-3.18.48-4.4s.15-2 .15-2.38v-.12h-.2c-.43 0-1 .14-1.6.27l-.87.29c-.69-.1-1-.38-1-.85a.87.87 0 0 1 .3-.77 2.05 2.05 0 0 1 .94-.28l1.19-.12c.56-.06.93-.12 1.11-.16s.28-.12.28-.26v-.17c0-.24 0-.39 0-.44 0-.21 0-.52 0-1s.05-.62.05-.8a5.24 5.24 0 0 0 -.12-1v-.05a1 1 0 0 1 .37-.7 1.2 1.2 0 0 1 .8-.35 1 1 0 0 1 .9.56 1.09 1.09 0 0 1 .07.25 1.2 1.2 0 0 1 0 .14 11.06 11.06 0 0 0 -.2 1.29 17.27 17.27 0 0 0 -.09 2v.24h.07a14.25 14.25 0 0 0 1.65-.07"/><path d="m105 80a17.29 17.29 0 0 1 -1.32-2.78l-.1-.25h-.07c-.63.93-1.39 2.09-2.26 3.48a20.81 20.81 0 0 1 -1.36 2 1.21 1.21 0 0 1 -.88.54 1 1 0 0 1 -1-.64v-.09a10.25 10.25 0 0 1 -.63-2.18 13.11 13.11 0 0 1 -.23-2.47v-.75c0-.47 0-.87 0-1.19 0-.68 0-1.55-.12-2.6-.05-.64-.07-1.07-.07-1.32 0-.77.29-1.16.87-1.16a1.25 1.25 0 0 1 .68.17.85.85 0 0 1 .39.43v.47 1.09c0 1.1-.08 2.07-.08 2.92a19.06 19.06 0 0 0 .29 4.3h.1a19.2 19.2 0 0 0 2-2.77c.38-.57.69-1 .92-1.32l.63-.85c.06-.08.12-.14.16-.2l.16-.26a.49.49 0 0 1 .07-.11.15.15 0 0 1 .07-.06s-.05 0-.05-.08.09-.23.27-.41h.68a.56.56 0 0 1 .53.26 3 3 0 0 1 .27.91 11.07 11.07 0 0 0 1.2 3.18h.09c.15 0 .4-.24.75-.74a9.35 9.35 0 0 0 1-1.88c.17-.44.39-1 .65-1.83a13.14 13.14 0 0 1 .57-1.44c.14-.25.31-.38.5-.38a2.7 2.7 0 0 1 .54.12l.29.1a.88.88 0 0 1 .36.56v.14a35 35 0 0 1 -2 5 7.78 7.78 0 0 1 -2.09 2.72l-.39.07a1.82 1.82 0 0 1 -1.39-.7"/><path d="m123.17 76.07a1.65 1.65 0 0 1 -.19.87q-.54.47-7.42 2.17a3.24 3.24 0 0 0 2.8 2 4.7 4.7 0 0 0 1.07-.19 4.06 4.06 0 0 1 1.12-.22q.87 0 .87.66c0 .37-.3.69-.91 1a6.18 6.18 0 0 1 -2.4.4 4.66 4.66 0 0 1 -2.88-.92 4.74 4.74 0 0 1 -1.66-2.58c0-.44-.08-.71-.08-.81a4.76 4.76 0 0 1 .45-2 7 7 0 0 1 1.3-1.91 6.2 6.2 0 0 1 1.85-1.41 4.34 4.34 0 0 1 1.92-.49 5.07 5.07 0 0 1 2.31.53 3.06 3.06 0 0 1 1.46 1.34 2.4 2.4 0 0 1 .39 1.54m-2.78-1.22a3.43 3.43 0 0 0 -1.57-.34q-2.07 0-3.38 3a22.15 22.15 0 0 0 5.49-1.49l.2-.34a1.28 1.28 0 0 0 -.74-.85"/><path d="m128.93 66.39c.08 1.15.13 2.1.13 2.84 0 1.72 0 3.25-.11 4.58s-.18 2.71-.31 4.15c-.08 1-.12 1.59-.12 1.85a2.75 2.75 0 0 0 .1.61 3.53 3.53 0 0 1 .1.63 1.45 1.45 0 0 1 -.39 1 1.17 1.17 0 0 1 -.9.43 1 1 0 0 1 -.71-.29.86.86 0 0 1 -.32-.61 1 1 0 0 1 .13-.36 5.78 5.78 0 0 0 .29-1c.08-.6.16-1.79.25-3.58s.14-4 .14-6.64c0-1.12 0-2-.11-2.71a17.36 17.36 0 0 0 -.26-1.76c0-.13 0-.2 0-.22a1.46 1.46 0 0 1 .17-.68l.1-.15.39-.31h.19a1.48 1.48 0 0 1 .72.15 1.54 1.54 0 0 1 .52.55v.37c0 .21 0 .59.05 1.14"/><path d="m135.28 66.39c.08 1.15.12 2.1.12 2.84 0 1.72 0 3.25-.11 4.58s-.17 2.71-.3 4.15c-.08 1-.12 1.59-.12 1.85a3.27 3.27 0 0 0 .09.61 2.8 2.8 0 0 1 .1.63 1.45 1.45 0 0 1 -.39 1 1.17 1.17 0 0 1 -.9.43 1 1 0 0 1 -.7-.29.86.86 0 0 1 -.32-.61 1.18 1.18 0 0 1 .12-.36 4.46 4.46 0 0 0 .29-1c.09-.6.17-1.79.26-3.58s.13-4 .13-6.64c0-1.12 0-2-.1-2.71s-.16-1.28-.26-1.76c0-.13-.05-.2-.05-.22a1.46 1.46 0 0 1 .17-.68l.1-.15.39-.31h.2a1.25 1.25 0 0 1 1.24.7v.37c0 .21 0 .59.05 1.14"/><path d="m141.48 81a10.61 10.61 0 0 1 -.27 2.59 8.76 8.76 0 0 1 -1 2.28 2.11 2.11 0 0 0 -.22.41 3.13 3.13 0 0 1 -.56.84 1.31 1.31 0 0 1 -.9.28 1.38 1.38 0 0 1 -.85-.28.8.8 0 0 1 -.37-.62.87.87 0 0 1 .25-.54 9.78 9.78 0 0 1 .8-.8 5.71 5.71 0 0 0 1.19-2.45 2.6 2.6 0 0 1 -.05-.42s0-.15 0-.34v-.31a1.81 1.81 0 0 0 -.16-.61 2.19 2.19 0 0 1 -.18-.68.94.94 0 0 1 .3-.72 1 1 0 0 1 .73-.28 1.65 1.65 0 0 1 1.11.61 2.19 2.19 0 0 1 .15 1"/><path d="m158.91 75.68a4.79 4.79 0 0 0 .08.61 22.22 22.22 0 0 1 .17 2.55 24.62 24.62 0 0 1 -.16 2.78 14.89 14.89 0 0 1 -.45 2.35 10.35 10.35 0 0 1 -1 2.5 8.32 8.32 0 0 1 -1.39 1.91 6.11 6.11 0 0 1 -1.62 1.21 3.73 3.73 0 0 1 -1.62.41 2 2 0 0 1 -1.33-.43 1.31 1.31 0 0 1 -.51-1.08c0-.48.21-.73.63-.73a2.3 2.3 0 0 1 .73.2 2.5 2.5 0 0 0 .73.17 2.56 2.56 0 0 0 1.44-.65 5.48 5.48 0 0 0 1.45-1.74 8.89 8.89 0 0 0 .87-2.63 20.46 20.46 0 0 0 .32-3.81 12.19 12.19 0 0 0 -.38-3.46c-.25-.81-.6-1.21-1-1.21a1.94 1.94 0 0 0 -.87.37 7.34 7.34 0 0 0 -1.2 1 3.92 3.92 0 0 0 -.89 1.35 4.32 4.32 0 0 0 -.3 1.59 1.52 1.52 0 0 0 .46 1.18 1.81 1.81 0 0 0 1.29.43 4.27 4.27 0 0 0 1-.22 3.66 3.66 0 0 1 1-.22c.43 0 .64.19.64.58a.8.8 0 0 1 -.34.68 3.5 3.5 0 0 1 -1.15.46.63.63 0 0 0 -.27.08 7.28 7.28 0 0 1 -1.45.12c-2 0-3-1-3-2.94a5.72 5.72 0 0 1 .69-2.65 7.91 7.91 0 0 1 2-2.41 6.23 6.23 0 0 1 1.49-1 3.29 3.29 0 0 1 1.3-.34 3 3 0 0 1 1.34.41 3.68 3.68 0 0 1 .61-.07.74.74 0 0 1 .83.83 3.52 3.52 0 0 1 -.1.61 2.56 2.56 0 0 0 -.08.51v.26a2.22 2.22 0 0 0 0 .37"/><path d="m172.48 76.07a1.65 1.65 0 0 1 -.19.87q-.54.47-7.42 2.17a3.25 3.25 0 0 0 2.8 2 4.7 4.7 0 0 0 1.07-.19 4.06 4.06 0 0 1 1.12-.22q.87 0 .87.66c0 .37-.3.69-.91 1a6.18 6.18 0 0 1 -2.4.4 4.66 4.66 0 0 1 -2.88-.92 4.74 4.74 0 0 1 -1.66-2.58c0-.44-.08-.71-.08-.81a4.76 4.76 0 0 1 .45-2 7 7 0 0 1 1.3-1.91 6.2 6.2 0 0 1 1.85-1.41 4.34 4.34 0 0 1 1.92-.49 5 5 0 0 1 2.31.53 3.06 3.06 0 0 1 1.46 1.34 2.4 2.4 0 0 1 .39 1.54m-2.78-1.22a3.4 3.4 0 0 0 -1.57-.34q-2.07 0-3.38 3a22.33 22.33 0 0 0 5.5-1.44l.19-.34a1.26 1.26 0 0 0 -.74-.85"/><path d="m181.87 71.6c.48 0 .93-.12 1.33-.2l.35-.05a1.46 1.46 0 0 1 .88.27.78.78 0 0 1 .38.63.91.91 0 0 1 -.28.67 1.1 1.1 0 0 1 -.79.28h-.32-.26c-.57 0-1.62.07-3.14.21q-.56 6.92-.56 7.3a3.26 3.26 0 0 0 .07.7.16.16 0 0 1 0 .08v.26l-.12.2a3.47 3.47 0 0 1 -.47.63.8.8 0 0 1 -.55.17c-.52 0-.88-.32-1.1-1a4.28 4.28 0 0 1 .3-1.27c.22-1.72.39-3.18.48-4.4s.15-2 .15-2.38v-.12h-.19c-.44 0-1 .14-1.61.27l-.87.29c-.69-.1-1-.38-1-.85a.87.87 0 0 1 .3-.77 2.05 2.05 0 0 1 .94-.28l1.19-.12c.56-.06.93-.12 1.11-.16s.28-.12.28-.26v-.17c0-.24 0-.39 0-.44 0-.21 0-.52.05-1s0-.62 0-.8a5.24 5.24 0 0 0 -.12-1v-.05a1 1 0 0 1 .38-.7 1.16 1.16 0 0 1 .79-.35 1 1 0 0 1 .9.56.73.73 0 0 1 .07.25s0 .06 0 .14a9.15 9.15 0 0 0 -.21 1.29 17.27 17.27 0 0 0 -.09 2v.24h.07a14.25 14.25 0 0 0 1.71-.09"/><path d="m200.1 80a1.19 1.19 0 0 1 .1.51 3.79 3.79 0 0 1 -.36 1.39 1.45 1.45 0 0 1 -1.07.61 1 1 0 0 1 -.78-.37 1.21 1.21 0 0 1 -.34-.87 3.33 3.33 0 0 1 .26-1 7.12 7.12 0 0 1 -2.18 1.63 5.12 5.12 0 0 1 -2.19.58 2.44 2.44 0 0 1 -1.86-.82 2.86 2.86 0 0 1 -.77-2 6 6 0 0 1 .67-2.49 8.59 8.59 0 0 1 1.74-2.44 6.89 6.89 0 0 1 2-1.41 5 5 0 0 1 2.08-.49c1.51 0 2.36.62 2.55 1.85a1.26 1.26 0 0 1 .78.51 2.87 2.87 0 0 1 .22 1.09c-.29.29-.59 1.55-.88 3.77m-1.89-5a1.65 1.65 0 0 0 -1.12-.33 4.1 4.1 0 0 0 -2.89 1.53 6 6 0 0 0 -1.06 1.51 3.27 3.27 0 0 0 -.38 1.46q0 1.26 1.14 1.26a4.29 4.29 0 0 0 2.84-1.17 6.57 6.57 0 0 0 1.93-3.18 1.75 1.75 0 0 0 -.46-1.08"/><path d="m212.58 82.44a8.58 8.58 0 0 1 -3 .48 6 6 0 0 1 -3.81-1 3.47 3.47 0 0 1 -1.34-2.92 4.67 4.67 0 0 1 1.17-2.92 11.26 11.26 0 0 1 2.88-2.59 5.44 5.44 0 0 1 2.76-.91 2.87 2.87 0 0 1 1.88.57 1.83 1.83 0 0 1 .7 1.5 1.51 1.51 0 0 1 -.37 1 1.09 1.09 0 0 1 -.87.43.72.72 0 0 1 -.61-.22 2 2 0 0 1 -.29-.58 1.13 1.13 0 0 0 -.12-.37.71.71 0 0 0 -.3-.3 1.36 1.36 0 0 0 -.48-.06 3.49 3.49 0 0 0 -2.17 1 17.52 17.52 0 0 0 -1.61 1.55 3.31 3.31 0 0 0 -.72 1.3c-.06.29-.1.52-.12.68a.6.6 0 0 0 .08.29 1.67 1.67 0 0 0 1 1.37 5.66 5.66 0 0 0 2.63.53 5.89 5.89 0 0 0 2.67-.58 3.83 3.83 0 0 0 .68-.42 1.48 1.48 0 0 1 .78-.27c.39 0 .6.26.64.8v.32a4.48 4.48 0 0 1 -2 1.36"/><path d="m223.86 71.6c.48 0 .93-.12 1.34-.2l.34-.05a1.51 1.51 0 0 1 .89.27.79.79 0 0 1 .37.63.91.91 0 0 1 -.28.67 1.09 1.09 0 0 1 -.79.28h-.31-.27c-.57 0-1.61.07-3.14.21q-.56 6.92-.56 7.3a3.27 3.27 0 0 0 .08.7.31.31 0 0 1 0 .08v.26l-.13.2a3.47 3.47 0 0 1 -.47.63.79.79 0 0 1 -.55.17c-.52 0-.88-.32-1.09-1a4.26 4.26 0 0 1 .29-1.27c.23-1.72.39-3.18.49-4.4s.14-2 .14-2.38v-.12h-.19c-.44 0-1 .14-1.61.27l-.87.29c-.68-.1-1-.38-1-.85a.87.87 0 0 1 .29-.77 2.06 2.06 0 0 1 .95-.28c.19 0 .59-.07 1.19-.12s.92-.12 1.1-.16.28-.12.28-.26v-.17c0-.24 0-.39 0-.44 0-.21 0-.52.05-1a7.12 7.12 0 0 0 0-.8 5.24 5.24 0 0 0 -.12-1v-.05a1 1 0 0 1 .38-.7 1.16 1.16 0 0 1 .79-.35 1 1 0 0 1 .9.56.73.73 0 0 1 .07.25s0 .06 0 .14a10.87 10.87 0 0 0 -.21 1.29 17.27 17.27 0 0 0 -.09 2v.24h.08a14.07 14.07 0 0 0 1.7-.09"/><path d="m228.7 74.66v.17.39a33.91 33.91 0 0 1 -.29 3.77c-.08.76-.14 1.3-.17 1.62a1.31 1.31 0 0 1 .24.61 2.4 2.4 0 0 1 -.61 1 1.17 1.17 0 0 1 -.73.4.87.87 0 0 1 -.69-.37 1.28 1.28 0 0 1 -.3-.85 10.81 10.81 0 0 1 .24-1.75 13.91 13.91 0 0 0 .29-2.28v-1.18a2.46 2.46 0 0 0 -.1-.59 3.54 3.54 0 0 1 -.09-.63 1.06 1.06 0 0 1 .26-.69 1 1 0 0 1 .64-.38.86.86 0 0 1 .41-.09.88.88 0 0 1 .46.09 1.56 1.56 0 0 1 .34.39l.15.2zm-.95-7.27a1.27 1.27 0 0 1 .86.3.88.88 0 0 1 .36.67 1.71 1.71 0 0 1 -.35 1 1.21 1.21 0 0 1 -.82.55 1.93 1.93 0 0 1 -1.39-.9v-.36c.21-.86.68-1.29 1.39-1.29"/><path d="m235.75 83a1.63 1.63 0 0 1 -.37-.65 12.12 12.12 0 0 0 -1.16-2.35l-.73-1.27-.68-1.29a21.06 21.06 0 0 0 -1.1-2 1.32 1.32 0 0 1 -.39-.88 2.48 2.48 0 0 1 .13-.58 2.39 2.39 0 0 0 .07-.29 1.29 1.29 0 0 1 1.07-.68.83.83 0 0 1 .78.53 2.54 2.54 0 0 1 .17.78 2.74 2.74 0 0 0 .14.73 19.51 19.51 0 0 0 2.9 5 3.35 3.35 0 0 0 .86-1.31q.45-1 1.35-3.48l.9-2.41v-.31-.1a1.16 1.16 0 0 1 .31-.8.91.91 0 0 1 .71-.34c.52 0 .88.38 1.07 1.14v.29a34.88 34.88 0 0 0 -1.53 3.43q-1.43 3.45-2.46 5.64l-.07.29a2.23 2.23 0 0 1 -.81 1h-.29a1.36 1.36 0 0 1 -.8-.2"/><path d="m252 76.07a1.65 1.65 0 0 1 -.19.87q-.54.47-7.42 2.17a3.24 3.24 0 0 0 2.8 2 4.7 4.7 0 0 0 1.07-.19 4 4 0 0 1 1.11-.22c.59 0 .88.22.88.66s-.3.69-.91 1a6.18 6.18 0 0 1 -2.4.4 4.61 4.61 0 0 1 -2.88-.92 4.74 4.74 0 0 1 -1.66-2.58c-.05-.44-.08-.71-.08-.81a4.76 4.76 0 0 1 .45-2 6.82 6.82 0 0 1 1.3-1.91 6.2 6.2 0 0 1 1.93-1.39 4.31 4.31 0 0 1 1.92-.49 5.1 5.1 0 0 1 2.31.53 3.06 3.06 0 0 1 1.46 1.34 2.4 2.4 0 0 1 .39 1.54m-2.78-1.22a3.43 3.43 0 0 0 -1.57-.34q-2.07 0-3.38 3a22.15 22.15 0 0 0 5.45-1.51l.2-.34a1.31 1.31 0 0 0 -.74-.85"/></g></svg>