<svg height="85" viewBox="0 0 341 85" width="341" xmlns="http://www.w3.org/2000/svg" xmlns:xlink="http://www.w3.org/1999/xlink"><linearGradient id="a" x1="50.001839%" x2="50.001839%" y1="0%" y2="99.988914%"><stop offset="0" stop-color="#fff"/><stop offset=".9" stop-color="#cbe9ff"/></linearGradient><path d="m288.916368 41.6833567c-.561557-12.9343729-14.44676-23.2900377-31.506799-23.2900377-4.808346-.0184548-9.579709.8415863-14.079708 2.537876-13.355017-12.43496412-40.297204-20.931195-71.355384-20.931195-25.025364 0-47.371568 5.51548297-62.116361 14.1624788-4.013566-1.127462-8.163757-1.6929677-12.3322932-1.6804006-17.0129809 0-30.8040677 8.9893578-30.8040677 20.0800015.0019278 1.0160796.1187477 2.0286743.348228 3.0184391-18.1957015 2.6006947-32.4761899 8.8166063-38.0886227 16.6469588-16.965923 1.7557831-28.9813604 6.1091198-28.9813604 11.2005765 0 6.0714286 17.0819991 11.0906437 39.299578 11.9355554 10.9456556 5.8672677 27.8645208 9.6363905 46.8696173 9.6363905 21.0599557 0 39.5631017-4.6265982 50.1950387-11.6214618 10.729189 2.5598625 22.813645 4.001552 35.597694 4.001552 16.730634 0 32.265998-2.4656345 45.128477-6.6839111 11.463292 5.8892543 32.940494 9.856256 57.5392 9.856256 36.654927 0 66.370395-8.7946197 66.370395-19.662257.012543-9.4071022-22.28974-17.272005-52.083632-19.2068214z" fill="url(#a)" opacity=".4"/></svg>