<?xml version="1.0" encoding="UTF-8"?>
<svg width="369px" height="81px" viewBox="0 0 369 81" version="1.1" xmlns="http://www.w3.org/2000/svg" xmlns:xlink="http://www.w3.org/1999/xlink">
    <!-- Generator: Sketch 59.1 (86144) - https://sketch.com -->
    <title>Asset 1 Copy</title>
    <desc>Created with Sketch.</desc>
    <defs>
        <linearGradient x1="50%" y1="0%" x2="50%" y2="100%" id="linearGradient-1">
            <stop stop-color="#FFFFFF" offset="0%"></stop>
            <stop stop-color="#CBE9FF" offset="90%"></stop>
        </linearGradient>
    </defs>
    <g id="Page-1" stroke="none" stroke-width="1" fill="none" fill-rule="evenodd" opacity="0.5">
        <g id="M&amp;M-Under-Construction-LP:-Desktop-Copy" transform="translate(-822.000000, -117.000000)" fill="url(#linearGradient-1)" fill-rule="nonzero">
            <g id="Asset-1-Copy" transform="translate(822.000000, 117.000000)">
                <path d="M369,43.2715715 C369,36.1016365 348.800164,30.2846227 323.867906,30.2846227 C316.88445,30.2675135 309.912365,30.7641616 303.029774,31.7690019 C298.007216,13.9564512 250.934442,0 193.597341,0 C145.467186,0 104.571062,9.85934542 89.696813,23.5528807 C88.1924098,23.5309711 86.677261,23.5200162 85.1513664,23.5200162 C38.1237245,23.4981066 0,34.0147417 0,46.9907357 C0,59.9667298 38.1237245,70.4888423 85.1513664,70.4888423 C105.505941,70.4888423 124.190628,68.5169732 138.839216,65.2305247 C154.957821,68.182851 173.655403,69.8698945 193.597341,69.8698945 C203.204029,69.8698945 212.514135,69.4755207 221.392263,68.7415472 C228.07826,75.8347985 248.471519,81 272.56561,81 C302.114237,81 326.079379,73.249459 326.079379,63.685894 C326.079379,61.0183933 324.20962,58.4933054 320.88274,56.2366108 C321.882094,56.2366108 322.881447,56.2366108 323.900143,56.2366108 C348.806612,56.2639978 369,50.4524615 369,43.2715715 Z" id="Path" opacity="0.8"></path>
            </g>
        </g>
    </g>
</svg>