<?xml version="1.0" encoding="UTF-8"?>
<svg width="488px" height="98px" viewBox="0 0 488 98" version="1.1" xmlns="http://www.w3.org/2000/svg" xmlns:xlink="http://www.w3.org/1999/xlink">
    <!-- Generator: Sketch 59.1 (86144) - https://sketch.com -->
    <title>Asset 2</title>
    <desc>Created with Sketch.</desc>
    <defs>
        <linearGradient x1="49.9993865%" y1="0%" x2="49.9993865%" y2="99.9814815%" id="linearGradient-1">
            <stop stop-color="#FFFFFF" offset="0%"></stop>
            <stop stop-color="#CBE9FF" offset="90%"></stop>
        </linearGradient>
    </defs>
    <g id="Page-1" stroke="none" stroke-width="1" fill="none" fill-rule="evenodd" opacity="0.5">
        <g id="M&amp;M-Under-Construction-LP:-Desktop-Copy" transform="translate(-841.000000, -52.000000)" fill="url(#linearGradient-1)" fill-rule="nonzero">
            <g id="Asset-2" transform="translate(841.000000, 52.000000)">
                <path d="M434.636695,58.2635147 C431.990086,58.2635147 429.397367,58.3174036 426.85255,58.4072184 C426.85255,58.4072184 426.85255,58.3653049 426.85255,58.3413542 C426.85255,48.3060456 412.224346,40.0311073 393.320851,38.8156135 C393.43446,38.0523321 393.494484,37.2820329 393.500485,36.5103666 C393.506472,16.6193789 357.920956,0.500613497 314.030356,0.500613497 C274.726414,0.500613497 242.10486,13.4279592 235.709886,30.4388851 C220.35117,27.271416 202.49554,25.469132 183.41241,25.469132 C154.263782,25.469132 127.929422,29.66049 109.163646,36.4325271 C97.5772463,33.7919715 82.3263108,32.1872802 65.6083633,32.1872802 C29.3402373,32.1872802 0,39.7137616 0,49.0006135 C0,58.2874653 29.3402373,65.8019715 65.5844121,65.8019715 C70.7638621,65.8019715 75.7996049,65.6462925 80.6317624,65.3528974 C86.1764684,83.4116629 130.073056,97.5006135 183.41241,97.5006135 C232.23696,97.5006135 273.145634,85.7169098 284.007509,69.8675888 C293.923501,71.6664356 303.982478,72.5602774 314.060295,72.5380826 C328.862146,72.5380826 342.711935,70.6998728 354.579762,67.5024653 C360.848992,73.6278357 373.213806,77.8371567 387.512681,78.0287616 C396.494386,82.2740086 414.218285,85.1720333 434.642683,85.1720333 C464.114652,85.1720333 488,79.1843789 488,71.7297493 C488,64.2751197 464.108664,58.2635147 434.636695,58.2635147 Z" id="Path" opacity="0.8"></path>
            </g>
        </g>
    </g>
</svg>