<?xml version="1.0" encoding="UTF-8"?>
<svg width="395px" height="98px" viewBox="0 0 395 98" version="1.1" xmlns="http://www.w3.org/2000/svg" xmlns:xlink="http://www.w3.org/1999/xlink">
    <!-- Generator: Sketch 59.1 (86144) - https://sketch.com -->
    <title>Asset 3 Copy</title>
    <desc>Created with Sketch.</desc>
    <defs>
        <linearGradient x1="50.0018392%" y1="0%" x2="50.0018392%" y2="99.9889143%" id="linearGradient-1">
            <stop stop-color="#FFFFFF" offset="0%"></stop>
            <stop stop-color="#CBE9FF" offset="90%"></stop>
        </linearGradient>
    </defs>
    <g id="Page-1" stroke="none" stroke-width="1" fill="none" fill-rule="evenodd" opacity="0.5">
        <g id="M&amp;M-Under-Construction-LP:-Desktop-Copy" transform="translate(-949.000000, -386.000000)" fill="url(#linearGradient-1)" fill-rule="nonzero">
            <g id="Asset-3-Copy" transform="translate(949.000000, 386.000000)">
                <path d="M334.66852,48.0584584 C334.018036,33.1458872 317.934004,21.2064149 298.172375,21.2064149 C292.60259,21.1851375 287.075645,22.1767143 281.863036,24.1324366 C266.393147,9.79565442 235.184456,0 199.207971,0 C170.219647,0 144.334748,6.35902742 127.255003,16.3285049 C122.605857,15.0286077 117.798452,14.3766128 112.969795,14.3911019 C93.2626761,14.3911019 77.2876635,24.7553026 77.2876635,37.5421624 C77.2898966,38.7136424 77.4252159,39.8811046 77.6910362,41.0222452 C56.613904,44.0206932 40.0719891,51.1872737 33.5707841,60.2152095 C13.9181752,62.2395241 0,67.2586653 0,73.1288153 C0,80.1288153 19.7870664,85.9156751 45.5229716,86.8898086 C58.2019569,93.6544232 77.8000558,98 99.814757,98 C124.209721,98 145.642984,92.6658044 157.95857,84.6011381 C170.38681,87.5525091 184.384933,89.2146922 199.193435,89.2146922 C218.573495,89.2146922 236.569005,86.3719607 251.468357,81.508536 C264.746951,88.2984997 289.625235,92.8722193 318.119337,92.8722193 C360.578857,92.8722193 395,82.7325401 395,70.2027936 C395.01453,59.3569581 369.180507,50.2891878 334.66852,48.0584584 Z" id="Path" opacity="0.8"></path>
            </g>
        </g>
    </g>
</svg>