<svg height="98" viewBox="0 0 395 98" width="395" xmlns="http://www.w3.org/2000/svg" xmlns:xlink="http://www.w3.org/1999/xlink"><linearGradient id="a" x1="50.001839%" x2="50.001839%" y1="0%" y2="99.988914%"><stop offset="0" stop-color="#fff"/><stop offset=".9" stop-color="#cbe9ff"/></linearGradient><path d="m334.66852 48.0584584c-.650484-14.9125712-16.734516-26.8520435-36.496145-26.8520435-5.569785-.0212774-11.09673.9702994-16.309339 2.9260217-15.469889-14.33678218-46.67858-24.1324366-82.655065-24.1324366-28.988324 0-54.873223 6.35902742-71.952968 16.3285049-4.649146-1.2998972-9.456551-1.9518921-14.285208-1.937403-19.7071189 0-35.6821315 10.3642007-35.6821315 23.1510605.0022331 1.17148.1375524 2.3389422.4033727 3.4800828-21.0771322 2.998448-37.6190471 10.1650285-44.1202521 19.1929643-19.6526089 2.0243146-33.5707841 7.0434558-33.5707841 12.9136058 0 7 19.7870664 12.7868598 45.5229716 13.7609933 12.6789853 6.7646146 32.2770842 11.1101914 54.2917854 11.1101914 24.394964 0 45.828227-5.3341956 58.143813-13.3988619 12.42824 2.951371 26.426363 4.6135541 41.234865 4.6135541 19.38006 0 37.37557-2.8427315 52.274922-7.7061562 13.278594 6.7899637 38.156878 11.3636833 66.65098 11.3636833 42.45952 0 76.880663-10.1396792 76.880663-22.6694257.01453-10.8458355-25.819493-19.9136058-60.33148-22.1443352z" fill="url(#a)" opacity=".4"/></svg>