<svg height="98" viewBox="0 0 488 98" width="488" xmlns="http://www.w3.org/2000/svg" xmlns:xlink="http://www.w3.org/1999/xlink"><linearGradient id="a" x1="49.999387%" x2="49.999387%" y1="0%" y2="99.981482%"><stop offset="0" stop-color="#fff"/><stop offset=".9" stop-color="#cbe9ff"/></linearGradient><path d="m434.636695 58.2635147c-2.646609 0-5.239328.0538889-7.784145.1437037 0 0 0-.0419135 0-.0658642 0-10.0353086-14.628204-18.3102469-33.531699-19.5257407.113609-.7632814.173633-1.5335806.179634-2.3052469.005987-19.8909877-35.579529-36.0097531-79.470129-36.0097531-39.303942 0-71.925496 12.9273457-78.32047 29.9382716-15.358716-3.1674691-33.214346-4.9697531-52.297476-4.9697531-29.148628 0-55.482988 4.191358-74.248764 10.9633951-11.5863997-2.6405556-26.8373352-4.2452469-43.5552827-4.2452469-36.268126 0-65.6083633 7.5264814-65.6083633 16.8133333 0 9.2868518 29.3402373 16.801358 65.5844121 16.801358 5.17945 0 10.2151928-.155679 15.0473503-.4490741 5.544706 18.0587655 49.4412936 32.1477161 102.7806476 32.1477161 48.82455 0 89.733224-11.7837037 100.595099-27.6330247 9.915992 1.7988468 19.974969 2.6926886 30.052786 2.6704938 14.801851 0 28.65164-1.8382098 40.519467-5.0356173 6.26923 6.1253704 18.634044 10.3346914 32.932919 10.5262963 8.981705 4.245247 26.705604 7.1432717 47.130002 7.1432717 29.471969 0 53.357317-5.9876544 53.357317-13.442284s-23.891336-13.4662346-53.363305-13.4662346z" fill="url(#a)" opacity=".4"/></svg>