<svg height="148" viewBox="0 0 573 148" width="573" xmlns="http://www.w3.org/2000/svg" xmlns:xlink="http://www.w3.org/1999/xlink"><linearGradient id="a" x1="50%" x2="50%" y1="0%" y2="100%"><stop offset="0" stop-color="#fff"/><stop offset=".9" stop-color="#cbe9ff"/></linearGradient><path d="m572.32 79c0-13.09-31.33-23.71-70-23.71-10.831359-.0312358-21.645082.8754841-32.32 2.71-7.79-32.52-80.8-58-169.73-58-74.65 0-138.08 18-161.15 43-2.333333-.04-4.683333-.06-7.05-.06-72.94-.04-132.07 19.16-132.07 42.85s59.13 42.9 132.07 42.9c31.57 0 60.55-3.6 83.27-9.6 25 5.39 54 8.47 84.93 8.47 14.9 0 29.34-.72 43.11-2.06 10.37 12.95 42 22.38 79.37 22.38 45.83 0 83-14.15 83-31.61 0-4.87-2.9-9.48-8.06-13.6h4.68c38.63.05 69.95-10.56 69.95-23.67z" fill="url(#a)" opacity=".4"/></svg>