<svg height="81" viewBox="0 0 369 81" width="369" xmlns="http://www.w3.org/2000/svg" xmlns:xlink="http://www.w3.org/1999/xlink"><linearGradient id="a" x1="50%" x2="50%" y1="0%" y2="100%"><stop offset="0" stop-color="#fff"/><stop offset=".9" stop-color="#cbe9ff"/></linearGradient><path d="m369 43.2715715c0-7.169935-20.199836-12.9869488-45.132094-12.9869488-6.983456-.0171092-13.955541.4795389-20.838132 1.4843792-5.022558-17.8125507-52.095332-31.7690019-109.432433-31.7690019-48.130155 0-89.026279 9.85934542-103.900528 23.5528807-1.5044032-.0219096-3.019552-.0328645-4.5454466-.0328645-47.0276419-.0219096-85.1513664 10.4947255-85.1513664 23.4707195 0 12.9759941 38.1237245 23.4981066 85.1513664 23.4981066 20.3545746 0 39.0392616-1.9718691 53.6878496-5.2583176 16.118605 2.9523263 34.816187 4.6393698 54.758125 4.6393698 9.606688 0 18.916794-.3943738 27.794922-1.1283473 6.685997 7.0932513 27.079256 12.2584528 51.173347 12.2584528 29.548627 0 53.513769-7.750541 53.513769-17.314106 0-2.6675007-1.869759-5.1925886-5.196639-7.4492832h3.017403c24.906469.027387 45.099857-5.7841493 45.099857-12.9650393z" fill="url(#a)" opacity=".4"/></svg>