<?xml version="1.0" encoding="UTF-8"?>
<svg width="320px" height="62px" viewBox="0 0 320 62" version="1.1" xmlns="http://www.w3.org/2000/svg" xmlns:xlink="http://www.w3.org/1999/xlink">
    <!-- Generator: Sketch 64 (93537) - https://sketch.com -->
    <title>Environment</title>
    <desc>Created with Sketch.</desc>
    <defs>
        <rect id="path-1" x="0" y="0" width="320" height="62"></rect>
        <linearGradient x1="50%" y1="0.468275685%" x2="50%" y2="98.5668285%" id="linearGradient-3">
            <stop stop-color="#29ABFF" offset="0%"></stop>
            <stop stop-color="#96D2FF" offset="100%"></stop>
        </linearGradient>
        <linearGradient x1="50%" y1="0%" x2="50%" y2="100%" id="linearGradient-4">
            <stop stop-color="#86C555" offset="0%"></stop>
            <stop stop-color="#529F17" offset="100%"></stop>
        </linearGradient>
        <linearGradient x1="50%" y1="0%" x2="50%" y2="100%" id="linearGradient-5">
            <stop stop-color="#86C555" offset="0%"></stop>
            <stop stop-color="#529F17" offset="100%"></stop>
        </linearGradient>
        <linearGradient x1="50%" y1="0%" x2="50%" y2="100%" id="linearGradient-6">
            <stop stop-color="#86C555" offset="0%"></stop>
            <stop stop-color="#7DC644" offset="100%"></stop>
        </linearGradient>
        <linearGradient x1="49.9993865%" y1="0%" x2="49.9993865%" y2="99.9814815%" id="linearGradient-7">
            <stop stop-color="#FFFFFF" offset="0%"></stop>
            <stop stop-color="#CBE9FF" offset="90%"></stop>
        </linearGradient>
        <linearGradient x1="50%" y1="0%" x2="50%" y2="100%" id="linearGradient-8">
            <stop stop-color="#FFFFFF" offset="0%"></stop>
            <stop stop-color="#CBE9FF" offset="90%"></stop>
        </linearGradient>
        <linearGradient x1="50%" y1="0%" x2="50%" y2="100%" id="linearGradient-9">
            <stop stop-color="#FFFFFF" offset="0%"></stop>
            <stop stop-color="#CBE9FF" offset="90%"></stop>
        </linearGradient>
        <linearGradient x1="50.0018392%" y1="0%" x2="50.0018392%" y2="99.9889143%" id="linearGradient-10">
            <stop stop-color="#FFFFFF" offset="0%"></stop>
            <stop stop-color="#CBE9FF" offset="90%"></stop>
        </linearGradient>
        <linearGradient x1="50.0018392%" y1="0%" x2="50.0018392%" y2="99.9889143%" id="linearGradient-11">
            <stop stop-color="#FFFFFF" offset="0%"></stop>
            <stop stop-color="#CBE9FF" offset="90%"></stop>
        </linearGradient>
    </defs>
    <g id="Symbols" stroke="none" stroke-width="1" fill="none" fill-rule="evenodd">
        <g id="Global/Mobile/Header">
            <g id="Environment">
                <mask id="mask-2" fill="white">
                    <use xlink:href="#path-1"></use>
                </mask>
                <g id="Mask"></g>
                <rect id="Sky" fill-opacity="0.5" fill="url(#linearGradient-3)" mask="url(#mask-2)" x="0" y="0" width="648.849992" height="38.4749995"></rect>
                <g id="Grass" mask="url(#mask-2)">
                    <g transform="translate(-290.000000, 25.000000)" id="Rectangle">
                        <path d="M0,3.90999987 C22.9872939,1.30333329 65.2715654,0 126.852814,0 C188.434063,0 263.899828,3.14972212 353.250109,9.44916635 L354.516238,37.1449988 L0,37.1449988 L0,3.90999987 Z" fill="url(#linearGradient-4)"></path>
                        <path d="M239.439575,8.29666885 C399.361453,2.76555628 510.113016,0 571.694265,0 C633.275514,0 771.375125,8.19374973 985.993099,24.5812492 L985.993099,37.1449988 L239.439575,37.1449988 L239.439575,8.29666885 Z" fill="url(#linearGradient-5)" transform="translate(612.716337, 18.572499) scale(-1, 1) translate(-612.716337, -18.572499) "></path>
                        <path d="M140.696716,37.1449988 C249.185446,12.3816663 337.836919,0 406.651133,0 C475.465347,0 548.321786,12.3816663 625.220449,37.1449988 L605.0206,37.1449988 L211.164943,37.1449988 L140.696716,37.1449988 Z" fill="url(#linearGradient-6)"></path>
                    </g>
                </g>
                <g id="Clouds" mask="url(#mask-2)" fill-rule="nonzero" opacity="0.8">
                    <g transform="translate(0.000000, -1.425000)" id="Path">
                        <path d="M148.925484,13.0874755 C148.674056,13.0874755 148.427748,13.0925949 148.18599,13.1011273 C148.18599,13.1011273 148.18599,13.0971455 148.18599,13.0948702 C148.18599,12.1415159 146.796311,11.3553968 145.000479,11.2399249 C145.011272,11.1674131 145.016974,11.0942347 145.017544,11.0209264 C145.018113,9.1312826 141.637489,7.5999999 137.467882,7.5999999 C133.734008,7.5999999 130.63496,8.82809773 130.027438,10.4441357 C128.56836,10.1432261 126.872075,9.97200913 125.059177,9.97200913 C122.290058,9.97200913 119.788294,10.3701881 118.005545,11.0135317 C116.904837,10.7626789 115.455998,10.6102332 113.867793,10.6102332 C110.422321,10.6102332 107.634999,11.3252489 107.634999,12.2074998 C107.634999,13.0897508 110.422321,13.8036288 113.865518,13.8036288 C114.357565,13.8036288 114.835961,13.7888393 115.295016,13.7609668 C115.821763,15.4765495 119.991939,16.8149998 125.059177,16.8149998 C129.69751,16.8149998 133.583834,15.695548 134.615712,14.1898625 C135.557731,14.3607529 136.513334,14.4456679 137.470726,14.4435594 C138.876902,14.4435594 140.192632,14.2689295 141.320076,13.9651758 C141.915652,14.5470859 143.09031,14.9469714 144.448703,14.9651739 C145.301965,15.3684723 146.985735,15.6437847 148.926053,15.6437847 C151.72589,15.6437847 153.994998,15.0749575 153.994998,14.3667677 C153.994998,13.6585779 151.725321,13.0874755 148.925484,13.0874755 Z" fill="url(#linearGradient-7)"></path>
                        <path d="M54.3703993,16.0074415 C54.3703993,14.7638915 51.3940494,13.7549915 47.7203994,13.7549915 C46.6914203,13.7520241 45.6641166,13.8381625 44.6499994,14.0124415 C43.9099494,10.9230416 36.9739995,8.50244161 28.5256496,8.50244161 C21.4338997,8.50244161 15.4080498,10.2124416 13.2163998,12.5874416 C12.9947332,12.5836416 12.7714832,12.5817416 12.5466498,12.5817416 C5.61734993,12.5779416 0,14.4019415 0,16.6524915 C0,18.9030415 5.61734993,20.7279915 12.5466498,20.7279915 C15.5457998,20.7279915 18.2988998,20.3859915 20.4572997,19.8159915 C22.8322997,20.3280415 25.5872997,20.6206415 28.5256496,20.6206415 C29.9411496,20.6206415 31.3129496,20.5522415 32.6210996,20.4249415 C33.6062496,21.6551914 36.6110995,22.5510414 40.1612495,22.5510414 C44.5150994,22.5510414 48.0462494,21.2067915 48.0462494,19.5480915 C48.0462494,19.0854415 47.7707494,18.6474915 47.2805494,18.2560915 C47.4277994,18.2560915 47.5750494,18.2560915 47.7251494,18.2560915 C51.3949994,18.2608415 54.3703993,17.2528915 54.3703993,16.0074415 Z" fill="url(#linearGradient-8)"></path>
                        <path d="M130.814998,17.5532408 C130.814998,16.872097 128.896014,16.3194807 126.527449,16.3194807 C125.864021,16.3178553 125.201673,16.3650369 124.547827,16.4604967 C124.070684,14.7683044 119.598771,13.4424415 114.151746,13.4424415 C109.579381,13.4424415 105.69425,14.3790794 104.281196,15.6799652 C104.138278,15.6778838 103.994338,15.6768431 103.849379,15.6768431 C99.3817526,15.6747616 95.7599988,16.673842 95.7599988,17.9065614 C95.7599988,19.1392808 99.3817526,20.1388815 103.849379,20.1388815 C105.783063,20.1388815 107.558108,19.9515539 108.949724,19.6393413 C110.480992,19.9198123 112.257262,20.0800814 114.151746,20.0800814 C115.064381,20.0800814 115.948841,20.0426159 116.792264,19.9728885 C117.427433,20.6467473 119.364793,21.1374415 121.653731,21.1374415 C124.460851,21.1374415 126.737539,20.4011401 126.737539,19.4926014 C126.737539,19.2391888 126.559912,18.9993055 126.243859,18.7849195 C126.338797,18.7849195 126.433736,18.7849195 126.530512,18.7849195 C128.896626,18.7875213 130.814998,18.2354253 130.814998,17.5532408 Z" fill="url(#linearGradient-9)"></path>
                        <path d="M244.047052,3.95991884 C243.993704,2.73115343 242.67461,1.74736529 241.053906,1.74736529 C240.597113,1.74561208 240.143834,1.82731598 239.716334,1.9884635 C238.447607,0.807141923 235.888099,0 232.937572,0 C230.560163,0 228.437273,0.523970875 227.036518,1.34543546 C226.655229,1.23832658 226.260961,1.18460354 225.86495,1.18579741 C224.248717,1.18579741 222.938564,2.03978639 222.938564,3.09339753 C222.938747,3.18992509 222.949845,3.28612159 222.971646,3.38014924 C221.243054,3.62721524 219.886408,4.21772683 219.353226,4.96161031 C217.741464,5.1284097 216.599997,5.54197669 216.599997,6.02566506 C216.599997,6.60245077 218.222787,7.0792762 220.333457,7.15954281 C221.373294,7.71693324 222.980587,8.0749999 224.786071,8.0749999 C226.786767,8.0749999 228.544565,7.63547308 229.554599,6.97096104 C230.573872,7.21414798 231.721896,7.35110847 232.93638,7.35110847 C234.52579,7.35110847 236.00165,7.1168732 237.223585,6.71613693 C238.312598,7.27561609 240.352932,7.65248124 242.689809,7.65248124 C246.172027,7.65248124 248.994997,6.81699238 248.994997,5.78456685 C248.996189,4.89089215 246.877472,4.14372639 244.047052,3.95991884 Z" fill="url(#linearGradient-10)"></path>
                        <path d="M334.653505,12.6405534 C334.591709,11.2238591 333.063726,10.0896093 331.186371,10.0896093 C330.657242,10.0875879 330.132182,10.1817877 329.636984,10.3675813 C328.167345,9.00558706 325.202519,8.0749999 321.784753,8.0749999 C319.030862,8.0749999 316.571797,8.6791075 314.949221,9.62620785 C314.507552,9.50271761 314.050849,9.4407781 313.592127,9.44215456 C311.71995,9.44215456 310.202324,10.4267536 310.202324,11.6415053 C310.202536,11.7527959 310.215392,11.8637048 310.240645,11.9721131 C308.238317,12.2569657 306.666835,12.9377908 306.049221,13.7954447 C304.182223,13.9877546 302.859996,14.464573 302.859996,15.0222373 C302.859996,15.6872373 304.739767,16.2369889 307.184678,16.3295316 C308.389182,16.97217 310.251001,17.3849998 312.342398,17.3849998 C314.65992,17.3849998 316.696079,16.8782512 317.86606,16.1121079 C319.046743,16.3924882 320.376565,16.5503956 321.783372,16.5503956 C323.624478,16.5503956 325.334051,16.2803361 326.74949,15.8183107 C328.010956,16.4633573 330.374393,16.8978606 333.081333,16.8978606 C337.114987,16.8978606 340.384996,15.9345911 340.384996,14.7442652 C340.386376,13.7139108 337.932144,12.8524727 334.653505,12.6405534 Z" fill="url(#linearGradient-11)"></path>
                    </g>
                </g>
            </g>
        </g>
    </g>
</svg>