<?xml version="1.0" encoding="UTF-8"?>
<svg width="1366px" height="634px" viewBox="0 0 1366 634" version="1.1" xmlns="http://www.w3.org/2000/svg" xmlns:xlink="http://www.w3.org/1999/xlink">
    <!-- Generator: Sketch 64 (93537) - https://sketch.com -->
    <title>Environment</title>
    <desc>Created with Sketch.</desc>
    <defs>
        <rect id="path-1" x="0" y="0" width="1366" height="634"></rect>
        <linearGradient x1="50%" y1="0.468275685%" x2="50%" y2="98.5668285%" id="linearGradient-3">
            <stop stop-color="#29ABFF" offset="0%"></stop>
            <stop stop-color="#96D2FF" offset="100%"></stop>
        </linearGradient>
        <linearGradient x1="50%" y1="0%" x2="50%" y2="100%" id="linearGradient-4">
            <stop stop-color="#86C555" offset="0%"></stop>
            <stop stop-color="#529F17" offset="100%"></stop>
        </linearGradient>
        <linearGradient x1="50%" y1="0%" x2="50%" y2="100%" id="linearGradient-5">
            <stop stop-color="#86C555" offset="0%"></stop>
            <stop stop-color="#529F17" offset="100%"></stop>
        </linearGradient>
        <linearGradient x1="50%" y1="0%" x2="50%" y2="100%" id="linearGradient-6">
            <stop stop-color="#86C555" offset="0%"></stop>
            <stop stop-color="#7DC644" offset="100%"></stop>
        </linearGradient>
        <linearGradient x1="50%" y1="0%" x2="50%" y2="100%" id="linearGradient-7">
            <stop stop-color="#86C555" offset="0%"></stop>
            <stop stop-color="#7DC644" offset="100%"></stop>
        </linearGradient>
        <linearGradient x1="49.9993865%" y1="0%" x2="49.9993865%" y2="99.9814815%" id="linearGradient-8">
            <stop stop-color="#FFFFFF" offset="0%"></stop>
            <stop stop-color="#CBE9FF" offset="90%"></stop>
        </linearGradient>
        <linearGradient x1="50%" y1="0%" x2="50%" y2="100%" id="linearGradient-9">
            <stop stop-color="#FFFFFF" offset="0%"></stop>
            <stop stop-color="#CBE9FF" offset="90%"></stop>
        </linearGradient>
        <linearGradient x1="50%" y1="0%" x2="50%" y2="100%" id="linearGradient-10">
            <stop stop-color="#FFFFFF" offset="0%"></stop>
            <stop stop-color="#CBE9FF" offset="90%"></stop>
        </linearGradient>
        <linearGradient x1="50.0018392%" y1="0%" x2="50.0018392%" y2="99.9889143%" id="linearGradient-11">
            <stop stop-color="#FFFFFF" offset="0%"></stop>
            <stop stop-color="#CBE9FF" offset="90%"></stop>
        </linearGradient>
        <linearGradient x1="50.0018392%" y1="0%" x2="50.0018392%" y2="99.9889143%" id="linearGradient-12">
            <stop stop-color="#FFFFFF" offset="0%"></stop>
            <stop stop-color="#CBE9FF" offset="90%"></stop>
        </linearGradient>
    </defs>
    <g id="Symbols" stroke="none" stroke-width="1" fill="none" fill-rule="evenodd">
        <g id="Global/Desktop/Footer-(Old)" transform="translate(0.000000, -69.000000)">
            <g id="Environment" transform="translate(0.000000, 69.000000)">
                <mask id="mask-2" fill="white">
                    <use xlink:href="#path-1"></use>
                </mask>
                <g id="Mask"></g>
                <rect id="Sky" fill-opacity="0.5" fill="url(#linearGradient-3)" mask="url(#mask-2)" x="0" y="0" width="1366" height="585"></rect>
                <g id="Grass" mask="url(#mask-2)">
                    <g transform="translate(-438.000000, 566.000000)" id="Rectangle">
                        <path d="M0,7.15789474 C42.082004,2.38596491 119.490284,0 232.22484,0 C344.959395,0 483.11183,5.76608187 646.682143,17.2982456 L649,68 L0,68 L0,7.15789474 Z" fill="url(#linearGradient-4)"></path>
                        <path d="M438.333333,15.1884103 C731.096505,5.06280344 933.845369,0 1046.57992,0 C1159.31448,0 1412.12842,15 1805.02175,45 L1805.02175,68 L438.333333,68 L438.333333,15.1884103 Z" fill="url(#linearGradient-5)" transform="translate(1121.677543, 34.000000) scale(-1, 1) translate(-1121.677543, -34.000000) "></path>
                        <path d="M257.568367,68 C456.174745,22.6666667 618.465775,0 744.441458,0 C870.417141,0 1003.79278,22.6666667 1144.56837,68 L1107.58924,68 L386.571991,68 L257.568367,68 Z" fill="url(#linearGradient-6)"></path>
                        <path d="M1318.47514,68 C1536.35848,22.6666667 1714.40166,0 1852.60469,0 C1990.80771,0 2137.12894,22.6666667 2291.56837,68 L2251,68 L1460,68 L1318.47514,68 Z" fill="url(#linearGradient-7)"></path>
                    </g>
                </g>
                <g id="Clouds" mask="url(#mask-2)" fill-rule="nonzero" opacity="0.8">
                    <g transform="translate(0.000000, 501.000000)" id="Path">
                        <path d="M1134.52734,27.5525802 C1133.99802,27.5525802 1133.47947,27.563358 1132.97051,27.581321 C1132.97051,27.581321 1132.97051,27.5729383 1132.97051,27.5681481 C1132.97051,25.5610864 1130.04487,23.9060988 1126.26417,23.663 C1126.28689,23.5103437 1126.2989,23.3562839 1126.3001,23.2019506 C1126.30129,19.2237531 1119.18419,16 1110.40607,16 C1102.54528,16 1096.02097,18.5854691 1094.74198,21.9876543 C1091.67023,21.3541605 1088.09911,20.9937037 1084.28248,20.9937037 C1078.45276,20.9937037 1073.18588,21.8319753 1069.43273,23.1863827 C1067.11545,22.6582716 1064.06526,22.3373333 1060.72167,22.3373333 C1053.46805,22.3373333 1047.6,23.8426296 1047.6,25.7 C1047.6,27.5573704 1053.46805,29.0602716 1060.71688,29.0602716 C1061.75277,29.0602716 1062.75992,29.0291358 1063.72635,28.9704568 C1064.83529,32.5822099 1073.61461,35.4 1084.28248,35.4 C1094.04739,35.4 1102.22913,33.0432593 1104.4015,29.8733951 C1106.3847,30.2331644 1108.3965,30.4119328 1110.41206,30.4074938 C1113.37243,30.4074938 1116.14239,30.0398519 1118.51595,29.4003704 C1119.7698,30.6254444 1122.24276,31.4673086 1125.10254,31.5056296 C1126.89888,32.354679 1130.44366,32.934284 1134.52854,32.934284 C1140.42293,32.934284 1145.2,31.7367531 1145.2,30.2458272 C1145.2,28.7549012 1140.42173,27.5525802 1134.52734,27.5525802 Z" fill="url(#linearGradient-8)"></path>
                        <path d="M935.464,33.6998773 C935.464,31.0818773 929.198,28.9578773 921.464,28.9578773 C919.297728,28.9516301 917.134984,29.1329741 915,29.4998773 C913.442,22.9958773 898.84,17.8998773 881.054,17.8998773 C866.124,17.8998773 853.438,21.4998773 848.824,26.4998773 C848.357333,26.4918773 847.887333,26.4878773 847.414,26.4878773 C832.826,26.4798773 821,30.3198773 821,35.0578773 C821,39.7958773 832.826,43.6378773 847.414,43.6378773 C853.728,43.6378773 859.524,42.9178773 864.068,41.7178773 C869.068,42.7958773 874.868,43.4118773 881.054,43.4118773 C884.034,43.4118773 886.922,43.2678773 889.676,42.9998773 C891.75,45.5898773 898.076,47.4758773 905.55,47.4758773 C914.716,47.4758773 922.15,44.6458773 922.15,41.1538773 C922.15,40.1798773 921.57,39.2578773 920.538,38.4338773 C920.848,38.4338773 921.158,38.4338773 921.474,38.4338773 C929.2,38.4438773 935.464,36.3218773 935.464,33.6998773 Z" fill="url(#linearGradient-9)"></path>
                        <path d="M1096.4,36.9541916 C1096.4,35.5202046 1092.36003,34.3568018 1087.37358,34.3568018 C1085.97689,34.35338 1084.58247,34.4527096 1083.20595,34.6536777 C1082.20144,31.0911675 1072.78689,28.2998773 1061.31947,28.2998773 C1051.69344,28.2998773 1043.51421,30.2717464 1040.53936,33.0104534 C1040.23848,33.0060715 1039.93545,33.0038805 1039.63027,33.0038805 C1030.22474,32.9994986 1022.6,35.1028256 1022.6,37.6980244 C1022.6,40.2932233 1030.22474,42.3976458 1039.63027,42.3976458 C1043.70119,42.3976458 1047.43813,42.0032719 1050.36784,41.3459823 C1053.59156,41.9364475 1057.33108,42.2738562 1061.31947,42.2738562 C1063.24081,42.2738562 1065.10283,42.1949814 1066.87845,42.0481867 C1068.21565,43.466837 1072.2943,44.4998773 1077.11312,44.4998773 C1083.02285,44.4998773 1087.81588,42.9497691 1087.81588,41.0370561 C1087.81588,40.503556 1087.44192,39.9985384 1086.77655,39.5471995 C1086.97642,39.5471995 1087.17629,39.5471995 1087.38003,39.5471995 C1092.36132,39.5526769 1096.4,38.3903696 1096.4,36.9541916 Z" fill="url(#linearGradient-10)"></path>
                        <path d="M1334.78327,8.33667135 C1334.67096,5.74979676 1331.89392,3.67866381 1328.48191,3.67866381 C1327.52024,3.67497284 1326.56597,3.84698105 1325.66597,4.18623901 C1322.99497,1.69924618 1317.60653,0 1311.3949,0 C1306.38982,0 1301.92058,1.10309659 1298.97162,2.83249575 C1298.16891,2.60700337 1297.33887,2.49390223 1296.50516,2.49641564 C1293.10257,2.49641564 1290.34435,4.29428719 1290.34435,6.51241593 C1290.34474,6.71563185 1290.3681,6.9181508 1290.414,7.11610376 C1286.77486,7.6362427 1283.91876,8.87942502 1282.79627,10.4454955 C1279.40309,10.7966521 1277,11.6673195 1277,12.6856108 C1277,13.8998965 1280.4164,14.9037396 1284.85992,15.0727219 C1287.04905,16.2461754 1290.43282,17 1294.23384,17 C1298.44583,17 1302.14646,16.0746804 1304.27285,14.6757076 C1306.41868,15.1876801 1308.83558,15.476018 1311.39239,15.476018 C1314.73851,15.476018 1317.84559,14.9828911 1320.41808,14.1392358 C1322.71074,15.3170867 1327.00618,16.110487 1331.92592,16.110487 C1339.25691,16.110487 1345.2,14.3515631 1345.2,12.1780356 C1345.20251,10.2966152 1340.74205,8.72363462 1334.78327,8.33667135 Z" fill="url(#linearGradient-11)"></path>
                        <path d="M313.527339,27.5525802 C312.998017,27.5525802 312.479473,27.563358 311.97051,27.581321 C311.97051,27.581321 311.97051,27.5729383 311.97051,27.5681481 C311.97051,25.5610864 309.044869,23.9060988 305.26417,23.663 C305.286892,23.5103437 305.298897,23.3562839 305.300097,23.2019506 C305.301294,19.2237531 298.184191,16 289.406071,16 C281.545283,16 275.020972,18.5854691 273.741977,21.9876543 C270.670234,21.3541605 267.099108,20.9937037 263.282482,20.9937037 C257.452756,20.9937037 252.185884,21.8319753 248.432729,23.1863827 C246.115449,22.6582716 243.065262,22.3373333 239.721673,22.3373333 C232.468047,22.3373333 226.6,23.8426296 226.6,25.7 C226.6,27.5573704 232.468047,29.0602716 239.716882,29.0602716 C240.752772,29.0602716 241.759921,29.0291358 242.726352,28.9704568 C243.835294,32.5822099 252.614611,35.4 263.282482,35.4 C273.047392,35.4 281.229127,33.0432593 283.401502,29.8733951 C285.3847,30.2331644 287.396496,30.4119328 289.412059,30.4074938 C292.372429,30.4074938 295.142387,30.0398519 297.515952,29.4003704 C298.769798,30.6254444 301.242761,31.4673086 304.102536,31.5056296 C305.898877,32.354679 309.443657,32.934284 313.528537,32.934284 C319.42293,32.934284 324.2,31.7367531 324.2,30.2458272 C324.2,28.7549012 319.421733,27.5525802 313.527339,27.5525802 Z" fill="url(#linearGradient-8)"></path>
                        <path d="M114.464,33.6998773 C114.464,31.0818773 108.198,28.9578773 100.464,28.9578773 C98.2977281,28.9516301 96.1349836,29.1329741 94,29.4998773 C92.442,22.9958773 77.84,17.8998773 60.054,17.8998773 C45.124,17.8998773 32.438,21.4998773 27.824,26.4998773 C27.3573333,26.4918773 26.8873333,26.4878773 26.414,26.4878773 C11.826,26.4798773 0,30.3198773 0,35.0578773 C0,39.7958773 11.826,43.6378773 26.414,43.6378773 C32.728,43.6378773 38.524,42.9178773 43.068,41.7178773 C48.068,42.7958773 53.868,43.4118773 60.054,43.4118773 C63.034,43.4118773 65.922,43.2678773 68.676,42.9998773 C70.75,45.5898773 77.076,47.4758773 84.55,47.4758773 C93.716,47.4758773 101.15,44.6458773 101.15,41.1538773 C101.15,40.1798773 100.57,39.2578773 99.538,38.4338773 C99.848,38.4338773 100.158,38.4338773 100.474,38.4338773 C108.2,38.4438773 114.464,36.3218773 114.464,33.6998773 Z" fill="url(#linearGradient-9)"></path>
                        <path d="M275.4,36.9541916 C275.4,35.5202046 271.360033,34.3568018 266.373581,34.3568018 C264.97689,34.35338 263.582473,34.4527096 262.205955,34.6536777 C261.201443,31.0911675 251.786888,28.2998773 240.319468,28.2998773 C230.693437,28.2998773 222.514212,30.2717464 219.539363,33.0104534 C219.238482,33.0060715 218.935452,33.0038805 218.630273,33.0038805 C209.224745,32.9994986 201.6,35.1028256 201.6,37.6980244 C201.6,40.2932233 209.224745,42.3976458 218.630273,42.3976458 C222.701188,42.3976458 226.438126,42.0032719 229.367843,41.3459823 C232.591564,41.9364475 236.331081,42.2738562 240.319468,42.2738562 C242.240806,42.2738562 244.102827,42.1949814 245.878453,42.0481867 C247.215652,43.466837 251.294304,44.4998773 256.113122,44.4998773 C262.022847,44.4998773 266.815876,42.9497691 266.815876,41.0370561 C266.815876,40.503556 266.441924,39.9985384 265.776548,39.5471995 C265.976419,39.5471995 266.176289,39.5471995 266.380029,39.5471995 C271.361322,39.5526769 275.4,38.3903696 275.4,36.9541916 Z" fill="url(#linearGradient-10)"></path>
                        <path d="M513.783274,8.33667135 C513.670962,5.74979676 510.893922,3.67866381 507.481914,3.67866381 C506.520245,3.67497284 505.565972,3.84698105 504.665972,4.18623901 C501.994969,1.69924618 496.606531,0 490.394895,0 C485.389823,0 480.920582,1.10309659 477.971623,2.83249575 C477.16891,2.60700337 476.338872,2.49390223 475.505165,2.49641564 C472.102568,2.49641564 469.344351,4.29428719 469.344351,6.51241593 C469.344737,6.71563185 469.368101,6.9181508 469.413997,7.11610376 C465.774856,7.6362427 462.918759,8.87942502 461.796272,10.4454955 C458.403087,10.7966521 456,11.6673195 456,12.6856108 C456,13.8998965 459.4164,14.9037396 463.859916,15.0727219 C466.049047,16.2461754 469.43282,17 473.233839,17 C477.44583,17 481.146459,16.0746804 483.272847,14.6757076 C485.418685,15.1876801 487.835576,15.476018 490.392386,15.476018 C493.738512,15.476018 496.845585,14.9828911 499.418081,14.1392358 C501.710739,15.3170867 506.00618,16.110487 510.925921,16.110487 C518.256906,16.110487 524.2,14.3515631 524.2,12.1780356 C524.202509,10.2966152 519.742052,8.72363462 513.783274,8.33667135 Z" fill="url(#linearGradient-11)"></path>
                        <path d="M704.533704,26.6116917 C704.403607,23.6291774 701.186801,21.241283 697.234475,21.241283 C696.120518,21.2370275 695.015129,21.4353429 693.972607,21.8264873 C690.878629,18.9591309 684.636891,17 677.441594,17 C671.643929,17 666.46695,18.2718055 663.051001,20.265701 C662.121171,20.0057215 661.15969,19.8753226 660.193959,19.8782204 C656.252535,19.8782204 653.057533,21.9510605 653.057533,24.5084325 C653.057979,24.7427285 653.085043,24.9762209 653.138207,25.204449 C648.922781,25.8041386 645.614398,27.2374547 644.314157,29.0430419 C640.383635,29.4479048 637.6,30.4517331 637.6,31.6257631 C637.6,33.0257631 641.557413,34.183135 646.704594,34.3779617 C649.240391,35.7308846 653.160011,36.6 657.562951,36.6 C662.441944,36.6 666.728597,35.5331609 669.191714,33.9202276 C671.677362,34.5105018 674.476987,34.8429384 677.438687,34.8429384 C681.314699,34.8429384 684.913801,34.2743921 687.893671,33.3017072 C690.54939,34.6596999 695.525047,35.5744439 701.223867,35.5744439 C709.715771,35.5744439 716.6,33.546508 716.6,31.0405587 C716.602906,28.8713916 711.436101,27.0578376 704.533704,26.6116917 Z" fill="url(#linearGradient-12)"></path>
                    </g>
                </g>
            </g>
        </g>
    </g>
</svg>